<svg xmlns="http://www.w3.org/2000/svg" width="54" height="60" viewBox="0 0 54 60"><g transform="translate(-12 -8)"><path d="M39,8C26.256,8,12,16.981,12,29.126,12.047,35.674,17.651,41,24.495,41h5.44a37.913,37.913,0,0,1-1.487,8.808A32.87,32.87,0,0,0,27,59c0,4.106,2.083,9,12,9s12-4.894,12-9a32.87,32.87,0,0,0-1.448-9.192A37.913,37.913,0,0,1,48.065,41H53.5A12.292,12.292,0,0,0,66,29C66,16.981,51.744,8,39,8Zm7.652,42.583A29.912,29.912,0,0,1,48,59c0,2.576-.931,6-9,6s-9-3.424-9-6a29.912,29.912,0,0,1,1.348-8.417A40.1,40.1,0,0,0,32.971,41H45.029A40.1,40.1,0,0,0,46.652,50.583ZM53.5,38H24.495A9.282,9.282,0,0,1,15,29c0-10.137,12.9-18,24-18s24,7.863,24,18.106A9.265,9.265,0,0,1,53.5,38Z" fill="#3e11a4"/><path d="M47.5,18a1.5,1.5,0,0,0,0,3c7.011,0,14.2,4.183,16.025,9.325a1.5,1.5,0,0,0,1.412,1,1.475,1.475,0,0,0,.5-.087,1.5,1.5,0,0,0,.911-1.916C64.1,22.975,55.818,18,47.5,18Z" transform="translate(-8.5 -2.501)" fill="#3e11a4"/></g></svg>