<svg xmlns="http://www.w3.org/2000/svg" width="52.148" height="47.735" viewBox="0 0 52.148 47.735"><path d="M814.729,358.75H798.721c-9.083,0-18.07,6.9-18.07,18.986H832.8C832.8,365.824,823.96,358.75,814.729,358.75ZM782.509,375.9a16.258,16.258,0,0,1,16.212-15.321h16.008A16.259,16.259,0,0,1,830.941,375.9ZM830.8,389.057H782.654a2.005,2.005,0,0,0-2,2v1.787a2.005,2.005,0,0,0,2,2H830.8a2.005,2.005,0,0,0,2-2V391.06A2.005,2.005,0,0,0,830.8,389.057Zm.17,3.789c0,.327-48.483.194-48.483,0V391.06c0-.195,48.483-.327,48.483,0Zm.894-8.963v1.832a4.607,4.607,0,0,0-2.13.457c-3.874,1.655-5.452-.457-7.825-.457v-1.832a6.352,6.352,0,0,1,2.848.6C827.984,385.868,828.769,383.883,831.861,383.883Zm-50.294,0c2.7,0,2.754,1.063,4.974,1.063s2.281-1.063,4.973-1.063,2.759,1.063,4.973,1.063,2.28-1.063,4.973-1.063,2.759,1.063,4.973,1.063,2.278-1.063,4.974-1.063v1.832a4.6,4.6,0,0,0-2.127.457c-4.9,2.093-5.864-1.744-9.945,0-4.89,2.089-5.87-1.741-9.945,0a6.883,6.883,0,0,1-5.695,0,4.59,4.59,0,0,0-2.126-.457Zm50.294-2.741h-6.81l-8.266,6.713-8.195-6.651H781.567v-1.832h27.674l7.545,6.123,7.616-6.185h7.46Zm-51.21,19.35a6,6,0,0,0,5.993,5.993h40.139a6,6,0,0,0,5.994-5.993v-4.055H780.651Zm1.832-2.222h48.461v2.222a4.166,4.166,0,0,1-4.161,4.161H786.644a4.165,4.165,0,0,1-4.161-4.161Zm36.306-33.906a3.483,3.483,0,1,0,3.482,3.482A3.487,3.487,0,0,0,818.79,364.364Zm0,5.133a1.65,1.65,0,1,1,1.65-1.65A1.65,1.65,0,0,1,818.79,369.5Zm-25.275-2.353a.946.946,0,0,1,0-1.892A.946.946,0,0,1,793.515,367.144Zm6.307,0a.946.946,0,0,1,0-1.892A.946.946,0,0,1,799.822,367.144Zm6.308,0a.946.946,0,0,1,0-1.892A.946.946,0,0,1,806.13,367.144Zm-15.914,4.868a.946.946,0,0,1,0-1.893A.946.946,0,0,1,790.216,372.011Zm6.307,0a.946.946,0,0,1,0-1.893A.946.946,0,0,1,796.524,372.011Zm6.308,0a.946.946,0,0,1,0-1.893A.946.946,0,0,1,802.832,372.011Zm6.2,0a.946.946,0,0,1,0-1.893A.946.946,0,0,1,809.034,372.011Z" transform="translate(-780.651 -358.75)" fill="#3e11a4"/></svg>