<svg xmlns="http://www.w3.org/2000/svg" width="59.271" height="59.479" viewBox="0 0 59.271 59.479"><g transform="translate(-155.682 -338.314)"><path d="M214.953,375.435,175.6,343.178l-3.832-3.831a3.522,3.522,0,0,0-4.984,0l-10.066,10.066a3.524,3.524,0,0,0,0,4.984l4.409,4.408,31.471,38.988ZM158.031,351.9a1.164,1.164,0,0,1,.344-.83l10.066-10.067a1.174,1.174,0,0,1,1.662,0l3.041,3.042-11.727,11.727-3.042-3.041A1.17,1.17,0,0,1,158.031,351.9Zm16.852-6.272,32.035,26.256-7.56,7.56,1.661,1.661,7.726-7.726,2.711,2.223L192.78,394.284l-2.2-2.73,7.433-7.433-1.661-1.661-7.255,7.256L163.056,357.46Z" fill="#3e11a4"/><path d="M188.711,379.512l-1.661,1.661a7.939,7.939,0,1,0-1.789-2.741l2.19-.849a5.595,5.595,0,1,1,1.259,1.929Z" transform="translate(-6.298 -6.354)" fill="#3e11a4"/></g></svg>