<svg xmlns="http://www.w3.org/2000/svg" width="73.683" height="47.612" viewBox="0 0 73.683 47.612"><g transform="matrix(-0.545, 0.839, -0.839, -0.545, 701.663, 13.356)"><path d="M367.654,546.9a1.35,1.35,0,0,0,1.508-1.175l.266-2.149a8.9,8.9,0,0,1,7.469.932,1.352,1.352,0,0,0,1.549-.079l1.6-1.245a1.351,1.351,0,0,0,.476-1.408,30.226,30.226,0,0,0-13.82-17.725,1.351,1.351,0,0,0-1.482.118l-1.6,1.245a1.352,1.352,0,0,0-.455,1.484,8.908,8.908,0,0,1-.74,7.175l-3.346-1.647a1.352,1.352,0,0,0-1.92,1.488l.831,4.006a8.922,8.922,0,0,1-8.01-.74,1.352,1.352,0,0,0-1.55.079l-1.6,1.244a1.35,1.35,0,0,0-.476,1.408,30.223,30.223,0,0,0,13.82,17.725,1.352,1.352,0,0,0,1.482-.118l1.6-1.244a1.352,1.352,0,0,0,.455-1.483,8.919,8.919,0,0,1,1.422-8.2Zm-4.084-2.652a11.621,11.621,0,0,0-2.689,10.449l-.165.129a27.652,27.652,0,0,1-11.5-14.751l.165-.129a11.619,11.619,0,0,0,10.789-.062,1.351,1.351,0,0,0,.687-1.467l-.487-2.345,1.931.95a1.349,1.349,0,0,0,1.676-.4,11.613,11.613,0,0,0,2.02-9.633l.164-.129a27.655,27.655,0,0,1,11.5,14.752l-.165.129a11.607,11.607,0,0,0-9.834-.391,1.351,1.351,0,0,0-.817,1.08l-.2,1.622-1.907-.236A1.343,1.343,0,0,0,363.571,544.245Z" fill="#3e11a4"/><path d="M411.743,591.78,402.09,579.4l-.343-.441h0l-11.891-15.251-2.132,1.662,11.891,15.25-2.206,1.72-11.982-15.367-2.132,1.662L396.832,586l.107.137h0l8.335,10.69a1.353,1.353,0,0,0,.746.482l4.3,1.048a1.351,1.351,0,0,0,1.672-1.3l.032-4.43A1.35,1.35,0,0,0,411.743,591.78Zm-2.437,3.544-2.189-.533-8.046-10.319,2.206-1.72,8.046,10.319Z" transform="translate(-16.99 -18.297)" fill="#3e11a4"/></g></svg>