<svg xmlns="http://www.w3.org/2000/svg" width="29.5" height="60.82" viewBox="0 0 29.5 60.82"><g transform="translate(-807.666 -514.212)"><path d="M848.712,570.025c0-5.557-3.54-11.522-10.125-12.153-.5-1.764-1.706-6.476-2.759-10.727a1.263,1.263,0,0,0-2.452.607s.721,2.912,1.465,5.825c.373,1.46.752,2.921,1.049,4.016.6,2.208.74,2.732,1.747,2.752,5.553.117,8.549,5.074,8.549,9.68a8.525,8.525,0,0,1-7.446,8.445,1.263,1.263,0,0,0-1.1,1.367l.314,3.462-4.4-.034h-.007a1.263,1.263,0,0,0-1.224.944l-1.285,4.937a1.262,1.262,0,1,0,2.443.636l1.037-3.985,4.811.037a1.237,1.237,0,0,0,.938-.408,1.26,1.26,0,0,0,.329-.969l-.336-3.7A11.06,11.06,0,0,0,848.712,570.025Z" transform="translate(-11.546 -15.825)" fill="#3e11a4"/><path d="M816.686,603.065l-2.348-.059,2.632-15.23a1.263,1.263,0,1,0-2.489-.43L811.6,604.018a1.263,1.263,0,0,0,1.213,1.477l2.579.064v3.887a1.263,1.263,0,0,0,2.525,0v-5.119A1.262,1.262,0,0,0,816.686,603.065Z" transform="translate(-1.938 -35.677)" fill="#3e11a4"/><path d="M810.163,540.816c.087-.4,2.139-9.864,2.709-13.63.125-.831.718-3.506,1.037-4.943.092-.415.165-.741.2-.917a5.271,5.271,0,0,1,8.057-3.771,4.359,4.359,0,0,1,1.946,2.887c.272,1.49.047,4.533-2.755,5.385a1.263,1.263,0,0,0,.735,2.416c3.74-1.137,5.1-5.014,4.5-8.256a6.858,6.858,0,0,0-3.055-4.55,7.791,7.791,0,0,0-11.9,5.36c-.037.173-.108.492-.2.9-.451,2.03-.941,4.267-1.069,5.113-.558,3.686-2.659,13.373-2.68,13.47a1.263,1.263,0,0,0,2.468.536Z" transform="translate(0 0)" fill="#3e11a4"/><path d="M818.939,548.7a1.263,1.263,0,0,0-1.451,1.04l-2.281,13.85a1.262,1.262,0,0,0,.655,1.321l8.755,4.635a1.263,1.263,0,1,0,1.182-2.232l-7.952-4.209,2.132-12.954A1.262,1.262,0,0,0,818.939,548.7Z" transform="translate(-3.724 -17.06)" fill="#3e11a4"/></g></svg>