<svg xmlns="http://www.w3.org/2000/svg" width="67.067" height="73.953" viewBox="0 0 67.067 73.953"><path d="M255.98,365.81a35.106,35.106,0,0,0-32.094-24.9v-3.359a1.346,1.346,0,0,0-2.693,0v3.359a35.107,35.107,0,0,0-32.094,24.9,1.348,1.348,0,0,0,1.291,1.73h30.8v23.841a3.982,3.982,0,1,1-7.964,0v-2.749a1.346,1.346,0,0,0-2.693,0v2.749a6.674,6.674,0,1,0,13.349,0V367.541h30.8a1.347,1.347,0,0,0,1.291-1.73Zm-20.525-.962H209.625c1.991-12.6,7.2-21.277,12.915-21.277S233.466,352.244,235.456,364.848Zm-20.246-20.414c-3.892,4.029-6.92,11.243-8.308,20.414H192.25A32.46,32.46,0,0,1,215.209,344.434Zm22.971,20.414c-1.389-9.171-4.418-16.385-8.308-20.413a32.459,32.459,0,0,1,22.959,20.413Zm-25.095-29.673h.032a4.348,4.348,0,0,0,4.3-3.32c.766-3.077-2.654-6.67-3.348-7.36a1.345,1.345,0,0,0-1.9,0c-.694.689-4.114,4.283-3.349,7.36A4.325,4.325,0,0,0,213.086,335.175Zm.038-7.7c.994,1.251,1.907,2.832,1.684,3.729a1.686,1.686,0,0,1-1.7,1.277H213.1a1.64,1.64,0,0,1-1.657-1.277C211.215,330.308,212.129,328.727,213.123,327.476ZM193.34,350.433h.032a4.348,4.348,0,0,0,4.3-3.32c.766-3.077-2.654-6.67-3.348-7.36a1.345,1.345,0,0,0-1.9,0c-.694.689-4.114,4.283-3.349,7.36A4.325,4.325,0,0,0,193.34,350.433Zm.038-7.7c.994,1.251,1.907,2.832,1.684,3.729a1.686,1.686,0,0,1-1.7,1.277h-.013a1.64,1.64,0,0,1-1.657-1.277C191.47,345.566,192.383,343.985,193.378,342.734Zm57.4,7.7h.032a4.348,4.348,0,0,0,4.3-3.32c.766-3.077-2.654-6.67-3.348-7.36a1.345,1.345,0,0,0-1.9,0c-.694.689-4.114,4.283-3.349,7.36A4.325,4.325,0,0,0,250.782,350.433Zm.038-7.7c.994,1.251,1.907,2.832,1.684,3.729a1.686,1.686,0,0,1-1.7,1.277h-.013a1.64,1.64,0,0,1-1.657-1.277C248.911,345.566,249.825,343.985,250.819,342.734Zm-15.3-7.559h.032a4.348,4.348,0,0,0,4.3-3.32c.766-3.077-2.654-6.67-3.348-7.36a1.345,1.345,0,0,0-1.9,0c-.694.689-4.114,4.283-3.349,7.36A4.325,4.325,0,0,0,235.524,335.175Zm.038-7.7c.994,1.251,1.907,2.832,1.684,3.729a1.686,1.686,0,0,1-1.7,1.277h-.013a1.64,1.64,0,0,1-1.657-1.277C233.653,330.308,234.567,328.727,235.561,327.476Z" transform="translate(-188.969 -324.104)" fill="#3e11a4"/></svg>