<svg xmlns="http://www.w3.org/2000/svg" width="79.724" height="23.674" viewBox="0 0 79.724 23.674"><path d="M1492.626,748.341a2.8,2.8,0,1,0,2.8,2.8A2.806,2.806,0,0,0,1492.626,748.341Zm0,3.748a.946.946,0,1,1,.946-.946A.947.947,0,0,1,1492.626,752.089Zm9.827-3.748a2.8,2.8,0,1,0,2.8,2.8A2.806,2.806,0,0,0,1502.453,748.341Zm0,3.748a.946.946,0,1,1,.947-.946A.947.947,0,0,1,1502.453,752.089Zm59.976-10.757h-26.342a2.781,2.781,0,0,0-2.667-2.026h-19.786a2.78,2.78,0,0,0-2.667,2.026h-26.406a.928.928,0,0,0-.929.928v17.766a.928.928,0,0,0,.929.928h26.405a2.781,2.781,0,0,0,2.667,2.026h19.786a2.781,2.781,0,0,0,2.667-2.026h26.342a.928.928,0,0,0,.928-.928V742.26A.928.928,0,0,0,1562.429,741.332Zm-76.939,1.857h25.359V759.1H1485.49Zm47.93,17.935h-19.786a.929.929,0,0,1-.928-.928v-18.1a.929.929,0,0,1,.928-.928h19.786a.922.922,0,0,1,.914.856.9.9,0,0,0-.049.242v17.766a.907.907,0,0,0,.049.242A.922.922,0,0,1,1533.42,761.124ZM1561.5,759.1h-25.3V743.189h25.3Zm-18.223-5.152a2.8,2.8,0,1,0-2.8-2.8A2.806,2.806,0,0,0,1543.278,753.946Zm0-3.748a.946.946,0,1,1-.947.946A.947.947,0,0,1,1543.278,750.2Zm9.827,3.748a2.8,2.8,0,1,0-2.8-2.8A2.806,2.806,0,0,0,1553.1,753.946Zm0-3.748a.946.946,0,1,1-.945.946A.947.947,0,0,1,1553.1,750.2Z" transform="translate(-1483.633 -739.306)" fill="#3e11a4"/></svg>