<svg xmlns="http://www.w3.org/2000/svg" width="43.538" height="60.953" viewBox="0 0 43.538 60.953"><path d="M135.361,346.938H120.123V345h-8.708v1.938H96.177A2.178,2.178,0,0,0,94,349.112v18.636a2.178,2.178,0,0,0,2.177,2.174H111.49V372.1h2.724v33.856h3.11V372.1h2.724v-2.174h15.313a2.178,2.178,0,0,0,2.177-2.174V349.112A2.178,2.178,0,0,0,135.361,346.938Zm-23.324-1.317H119.5v1.317h-7.464ZM132.68,368.06H99.343V348.8H132.68Zm-10.847-3.572h-4.2v-.932H120.9v-3.261h.933Zm-7.93-.932h-3.265v-3.261H109.7v4.193h4.2Zm-3.265-10.249H113.9v-.932h-4.2v4.193h.933Zm11.2-.932h-4.2v.932H120.9v3.261h.933Z" transform="translate(-94 -345)" fill="#3e11a4"/></svg>