<svg xmlns="http://www.w3.org/2000/svg" width="62.189" height="46.668" viewBox="0 0 62.189 46.668"><path d="M566.728,77.318V78.97h20.609v32.817H528.452V78.97H549.6V77.318H526.8v36.121h62.189V77.318Zm12.966,25.934H558.2V101.6h21.5Zm0-5.281H558.2V96.319h21.5Zm0-5.264H558.2V91.055h21.5ZM562.144,73.84V66.77h-8.5v7.07H549.6v9.846h17.131V73.84Zm.727,6.1h-9.639V78.35h9.639Zm-10.915,21.788v3.306h-18.02v-3.306a1.663,1.663,0,0,1,1.051-1.546l5.094-2.017a10.965,10.965,0,0,0,5.729,0l5.094,2.017A1.663,1.663,0,0,1,551.956,101.724Zm-5.2-6.756a.255.255,0,0,1-.235.116.513.513,0,0,1-.316-.219c-.308.828-1.353,3.21-3.2,3.21-1.871,0-3.03-2.306-3.354-3.044a.4.4,0,0,1-.221.1.45.45,0,0,1-.392-.213c-.1-.134-1.045-1.88-.482-2.634a.275.275,0,0,1,.235-.116.607.607,0,0,1,.368.219c-.008-.219-.011-.5.006-.826a7.356,7.356,0,0,1,.066-1.607,4.022,4.022,0,0,1,1.023-1.73l.055-.055c.072-.066.145-.131.225-.2.006,0,.014-.012.022-.017a3.844,3.844,0,0,1,2.461-.8,3.975,3.975,0,0,1,3.859,4.939.3.3,0,0,1,.066-.019c.155-.022.3.064.422.258C547.866,93.114,546.907,94.774,546.76,94.968Z" transform="translate(-526.8 -66.77)" fill="#3e11a4"/></svg>