<svg xmlns="http://www.w3.org/2000/svg" width="70.835" height="49.479" viewBox="0 0 70.835 49.479"><g transform="translate(-625.738 -1113.336)"><path d="M686.514,1117.543a1.327,1.327,0,0,0-.32-.517l-3.3-3.3a1.328,1.328,0,0,0-1.878,1.878l3.08,3.08,5.956,17.751a14.339,14.339,0,0,0-21.179,6.734,9.348,9.348,0,0,0-15.43,0,14.339,14.339,0,0,0-21.179-6.734l5.956-17.751,3.08-3.08a1.328,1.328,0,1,0-1.879-1.878l-3.3,3.3a1.326,1.326,0,0,0-.32.517l-7.766,23.145a14.355,14.355,0,1,0,26.423,7.77,6.7,6.7,0,0,1,13.4,0,14.358,14.358,0,1,0,26.423-7.769ZM640.1,1160.159a11.7,11.7,0,1,1,11.7-11.7A11.715,11.715,0,0,1,640.1,1160.159Zm42.119,0a11.7,11.7,0,1,1,11.7-11.7A11.715,11.715,0,0,1,682.215,1160.159Z" transform="translate(0)" fill="#3e11a4"/><path d="M819.332,1232.007a1.328,1.328,0,0,0-1.878,0l-5.423,5.424a1.328,1.328,0,1,0,1.879,1.879l5.423-5.424A1.328,1.328,0,0,0,819.332,1232.007Z" transform="translate(-136.511 -86.856)" fill="#3e11a4"/><path d="M844.837,1220.229a1.323,1.323,0,0,0,.94-.389l.937-.937a1.329,1.329,0,0,0-1.879-1.879l-.937.937a1.328,1.328,0,0,0,.939,2.268Z" transform="translate(-159.911 -75.853)" fill="#3e11a4"/><path d="M844.681,1245.752l-3.924,3.923a1.329,1.329,0,0,0,1.879,1.879l3.923-3.923a1.328,1.328,0,0,0-1.878-1.879Z" transform="translate(-157.605 -96.948)" fill="#3e11a4"/><path d="M661.789,1232.007a1.328,1.328,0,0,0-1.879,0l-5.424,5.424a1.328,1.328,0,0,0,1.879,1.879l5.423-5.424A1.328,1.328,0,0,0,661.789,1232.007Z" transform="translate(-20.825 -86.856)" fill="#3e11a4"/><path d="M687.295,1220.229a1.324,1.324,0,0,0,.94-.389l.937-.937a1.328,1.328,0,0,0-1.879-1.879l-.937.937a1.328,1.328,0,0,0,.939,2.268Z" transform="translate(-44.226 -75.853)" fill="#3e11a4"/><path d="M687.138,1245.752l-3.923,3.923a1.329,1.329,0,0,0,1.879,1.879l3.923-3.923a1.328,1.328,0,0,0-1.879-1.879Z" transform="translate(-41.92 -96.948)" fill="#3e11a4"/></g></svg>