<svg xmlns="http://www.w3.org/2000/svg" width="30.241" height="63.317" viewBox="0 0 30.241 63.317"><g transform="translate(-46.25 -26.836)"><path d="M75.426,26.836H47.315A1.065,1.065,0,0,0,46.25,27.9V48.512a13.646,13.646,0,0,0,13.63,13.63h2.982a13.645,13.645,0,0,0,13.63-13.629V27.9A1.065,1.065,0,0,0,75.426,26.836ZM74.362,48.512a11.512,11.512,0,0,1-11.5,11.5H59.88a11.513,11.513,0,0,1-11.5-11.5V46.379a17.566,17.566,0,0,0,2.908.242,24.446,24.446,0,0,0,6.995-1.112,20.5,20.5,0,0,1,12.7-.014,1.064,1.064,0,0,0,.687-2.015,22.572,22.572,0,0,0-14-.012,19.482,19.482,0,0,1-9.292.744V28.966H74.362Z" transform="translate(0)" fill="#3e11a4"/><path d="M68.077,90.347H63.195v-18.5a1.065,1.065,0,0,0-2.13,0v18.5H56.182a4.812,4.812,0,0,0-4.807,4.807V95.6a1.065,1.065,0,0,0,1.065,1.065H71.82A1.065,1.065,0,0,0,72.885,95.6v-.444A4.812,4.812,0,0,0,68.077,90.347Zm-14.5,4.186a2.682,2.682,0,0,1,2.605-2.056h11.9a2.682,2.682,0,0,1,2.605,2.056Z" transform="translate(-0.759 -6.51)" fill="#3e11a4"/></g></svg>