<?xml version="1.0" encoding="UTF-8"?>
<svg width="48px" height="40px" viewBox="0 0 48 40" version="1.1" xmlns="http://www.w3.org/2000/svg" xmlns:xlink="http://www.w3.org/1999/xlink">
    <!-- Generator: Sketch 52.6 (67491) - http://www.bohemiancoding.com/sketch -->
    <title>Group 7</title>
    <desc>Created with Sketch.</desc>
    <defs>
        <polygon id="path-1" points="0 0 40 0 40 39.9375 0 39.9375"></polygon>
        <polygon id="path-3" points="0 0 46 0 46 27 0 27"></polygon>
    </defs>
    <g id="Symbols" stroke="none" stroke-width="1" fill="none" fill-rule="evenodd">
        <g id="menu-desktop" transform="translate(-158.000000, -12.000000)">
            <g id="Group-7" transform="translate(158.336127, 12.000000)">
                <g id="Group-3" transform="translate(3.000000, 0.000000)">
                    <mask id="mask-2" fill="white">
                        <use xlink:href="#path-1"></use>
                    </mask>
                    <g id="Clip-2"></g>
                    <path d="M22.9569033,39.717745 C33.8436205,38.0954542 41.4061391,27.897536 39.7798909,17.0215811 C38.1536426,6.14568886 27.9375239,-1.40283218 17.0508695,0.219458564 C6.15637363,1.84293918 -1.40614502,12.0407947 0.220103243,22.9167496 C1.84635151,33.7927045 12.0624702,41.3412256 22.9569033,39.717745" id="Fill-1" fill="#000000" mask="url(#mask-2)"></path>
                </g>
                <path d="M24.6614363,37.8017382 C34.4649808,36.3385483 41.265276,27.1455673 39.8018038,17.3434938 C38.3383943,7.54135749 29.1494931,0.734741912 19.3459485,2.19799454 C9.5349994,3.66225104 2.73476693,12.855232 4.19817641,22.6573055 C5.66158588,32.4595046 14.8504871,39.2660574 24.6614363,37.8017382" id="Fill-4" fill="#00FFCC"></path>
                <path d="M25.3495596,32.862494 C32.1547215,31.8469806 36.8783675,25.4587141 35.8624974,18.6555787 C34.8466911,11.8523795 28.4628355,7.12173842 21.6576737,8.13725174 C14.8461942,9.15372201 10.1216548,15.5421161 11.137461,22.3453154 C12.1532673,29.148387 18.5380801,33.879028 25.3495596,32.862494" id="Fill-6" fill="#000000"></path>
                <g id="Group-10" transform="translate(0.000000, 7.000000)">
                    <mask id="mask-4" fill="white">
                        <use xlink:href="#path-3"></use>
                    </mask>
                    <g id="Clip-9"></g>
                    <polygon id="Fill-8" fill="#000000" mask="url(#mask-4)" points="0 14.4048101 2.01343322 27 46 12.6921816 43.7766425 0"></polygon>
                </g>
                <polygon id="Fill-11" fill="#00FFFF" points="1 22.2107449 2.70229208 33 46 18.8682652 44.1243093 8"></polygon>
                <path d="M25.8092836,25.0859755 L45.5439812,18.7798239 L43.681077,8.95101787 L24.1633219,15.2596428 L24,13.8542005 L44.7738008,7 L47,19.6066327 L25.9685051,26.4651163 L25.8092836,25.0859755 Z M2.62844759,22.3096396 L4.30816217,32.1248892 L25.7066768,25.2113742 L25.8648649,26.5994322 L3.00292222,34 L1,21.4087558 L23.9091358,13.9069767 L24.0713977,15.3215063 L2.62844759,22.3096396 Z" id="Fill-13" fill="#000000"></path>
                <polygon id="Fill-15" fill="#000000" points="41 27.3097293 30.4060337 31.0037872 30.2082033 29.6708961 28.0742577 30.2764314 27.5880117 27.000208 25.7048539 31.2211147 23.920643 29.6893731 23.3708607 30.4940774 20.3090823 27.7915324 21.2141104 34.2185268 10.5982263 38 10.20833 36.609448 8.44229947 37.1106839 7.32835537 30.2780242 9.04434239 29.7843066 7.69196294 21.0007964 6.01144984 21.40506 5 14.5896668 14.8978541 11.168431 16.0630454 12.2555782 17.0743052 11.8513147 21.6180062 16.0842633 25.3697522 7.54413956 35.4166601 4 37.5062634 4.66090245 38.5237944 11.2575665 36.5853353 12.0673679 37.8289492 21.2148745 39.9528862 20.4641357"></polygon>
                <polygon id="Fill-17" fill="#FFFFFF" points="7.68232366 18.9361372 7 14.3671433 14.9675938 11.6584695 21.711926 17.8183459 26.135485 7.76785554 34.1720445 5 34.8335815 9.42985305 33.0716847 10.0616508 34.644441 20.5928647 36.2988896 19.8815925 37 24.5766431 28.8104192 27.2873764 27.4152888 17.9450689 23.1142681 27.2084471 16.8651796 21.5812677 18.2840056 31.0822212 9.88304322 34 9.17932687 29.2875644 10.9098315 28.7583202 9.37186104 18.4595933"></polygon>
                <path d="M30.2035167,26.1555556 L28.9767442,18.520408 L29.4941329,17.4444444 L30.8604651,25.9480652 L30.2035167,26.1555556 Z M27.428828,9.35555556 L27.0930233,7.21727101 L33.83461,5 L34,6.05344401 L28.0159348,8.04144459 L27.428828,9.35555556 Z M26.7678819,7.48888889 L27.0930233,9.70852404 L23.37858,18.6888889 L22.0697674,17.4506724 L26.2773219,7.66109518 L26.7678819,7.48888889 Z M28.9060971,18.6888889 L30.2325581,25.9981958 L29.5917382,26.1555556 L28.3488372,19.7164326 L28.9060971,18.6888889 Z M17.6744186,21.4095088 L17.8191645,21.1777778 L22.6976744,25.9049597 L22.540109,26.1555556 L17.6744186,21.4095088 Z M9.78269566,19.0775994 L11.3127254,28.8439815 L9.51162791,29.5217663 L10.0565373,33 L11.1773851,32.6624906 L10.8018124,30.2650122 L12.6511628,29.7742683 L10.91451,18.6888889 L9.78269566,19.0775994 Z M7.53077415,18.0666667 L7,14.5344722 L14.6796988,11.8444444 L15.7906977,12.6920408 L8.43844039,15.3006242 L8.79565512,17.6775861 L7.53077415,18.0666667 Z" id="Fill-19" fill="#989898"></path>
            </g>
        </g>
    </g>
</svg>