<svg xmlns="http://www.w3.org/2000/svg" width="1049.871" height="318.879" viewBox="0 0 1049.871 318.879">
  <g id="Grupo_100" data-name="Grupo 100" transform="translate(-127.43 -89.791)">
    <g id="Polígono_3" data-name="Polígono 3" transform="matrix(-0.469, 0.883, -0.883, -0.469, 440.213, 99.414)" fill="#2e3192">
      <path d="M 24.00114822387695 19.99736022949219 L 0.8885061740875244 19.99736022949219 L 12.44482707977295 0.9634273052215576 L 24.00114822387695 19.99736022949219 Z" stroke="none"/>
      <path d="M 12.44482707977295 1.926870346069336 L 1.77702522277832 19.49736022949219 L 23.11262893676758 19.49736022949219 L 12.44482707977295 1.926870346069336 M 12.44482707977295 1.9073486328125e-06 L 24.88965797424316 20.49736022949219 L -3.814697265625e-06 20.49736022949219 L 12.44482707977295 1.9073486328125e-06 Z" stroke="none" fill="#3d40af"/>
    </g>
    <g id="Polígono_12" data-name="Polígono 12" transform="matrix(-0.469, 0.883, -0.883, -0.469, 245.213, 297.414)" fill="#2e3192">
      <path d="M 24.00114822387695 19.99736022949219 L 0.8885061740875244 19.99736022949219 L 12.44482707977295 0.9634273052215576 L 24.00114822387695 19.99736022949219 Z" stroke="none"/>
      <path d="M 12.44482707977295 1.926870346069336 L 1.77702522277832 19.49736022949219 L 23.11262893676758 19.49736022949219 L 12.44482707977295 1.926870346069336 M 12.44482707977295 1.9073486328125e-06 L 24.88965797424316 20.49736022949219 L -3.814697265625e-06 20.49736022949219 L 12.44482707977295 1.9073486328125e-06 Z" stroke="none" fill="#3d40af"/>
    </g>
    <g id="Polígono_15" data-name="Polígono 15" transform="matrix(-0.469, 0.883, -0.883, -0.469, 157.213, 376.414)" fill="#2e3192">
      <path d="M 24.00114822387695 19.99736022949219 L 0.8885061740875244 19.99736022949219 L 12.44482707977295 0.9634273052215576 L 24.00114822387695 19.99736022949219 Z" stroke="none"/>
      <path d="M 12.44482707977295 1.926870346069336 L 1.77702522277832 19.49736022949219 L 23.11262893676758 19.49736022949219 L 12.44482707977295 1.926870346069336 M 12.44482707977295 1.9073486328125e-06 L 24.88965797424316 20.49736022949219 L -3.814697265625e-06 20.49736022949219 L 12.44482707977295 1.9073486328125e-06 Z" stroke="none" fill="#3d40af"/>
    </g>
    <g id="Polígono_4" data-name="Polígono 4" transform="translate(920.737 113.126) rotate(-179)" fill="#2e3192">
      <path d="M 24.00114822387695 19.99736213684082 L 0.8885061740875244 19.99736213684082 L 12.44482707977295 0.963428258895874 L 24.00114822387695 19.99736213684082 Z" stroke="none"/>
      <path d="M 12.44482707977295 1.926870346069336 L 1.77702522277832 19.49736213684082 L 23.11262893676758 19.49736213684082 L 12.44482707977295 1.926870346069336 M 12.44482707977295 1.9073486328125e-06 L 24.88965797424316 20.49736213684082 L -3.814697265625e-06 20.49736213684082 L 12.44482707977295 1.9073486328125e-06 Z" stroke="none" fill="#3d40af"/>
    </g>
    <g id="Polígono_18" data-name="Polígono 18" transform="translate(194.737 142.126) rotate(-179)" fill="#2e3192">
      <path d="M 24.00114822387695 19.99736213684082 L 0.8885061740875244 19.99736213684082 L 12.44482707977295 0.963428258895874 L 24.00114822387695 19.99736213684082 Z" stroke="none"/>
      <path d="M 12.44482707977295 1.926870346069336 L 1.77702522277832 19.49736213684082 L 23.11262893676758 19.49736213684082 L 12.44482707977295 1.926870346069336 M 12.44482707977295 1.9073486328125e-06 L 24.88965797424316 20.49736213684082 L -3.814697265625e-06 20.49736213684082 L 12.44482707977295 1.9073486328125e-06 Z" stroke="none" fill="#3d40af"/>
    </g>
    <g id="Polígono_16" data-name="Polígono 16" transform="translate(1037.737 288.126) rotate(-179)" fill="#2e3192">
      <path d="M 24.00114822387695 19.99736213684082 L 0.8885061740875244 19.99736213684082 L 12.44482707977295 0.963428258895874 L 24.00114822387695 19.99736213684082 Z" stroke="none"/>
      <path d="M 12.44482707977295 1.926870346069336 L 1.77702522277832 19.49736213684082 L 23.11262893676758 19.49736213684082 L 12.44482707977295 1.926870346069336 M 12.44482707977295 1.9073486328125e-06 L 24.88965797424316 20.49736213684082 L -3.814697265625e-06 20.49736213684082 L 12.44482707977295 1.9073486328125e-06 Z" stroke="none" fill="#3d40af"/>
    </g>
    <g id="Polígono_5" data-name="Polígono 5" transform="translate(464.485 372.951) rotate(128)" fill="#2e3192">
      <path d="M 24.00114822387695 19.99736022949219 L 0.8885061740875244 19.99736022949219 L 12.44482707977295 0.9634273052215576 L 24.00114822387695 19.99736022949219 Z" stroke="none"/>
      <path d="M 12.44482707977295 1.926870346069336 L 1.77702522277832 19.49736022949219 L 23.11262893676758 19.49736022949219 L 12.44482707977295 1.926870346069336 M 12.44482707977295 1.9073486328125e-06 L 24.88965797424316 20.49736022949219 L -3.814697265625e-06 20.49736022949219 L 12.44482707977295 1.9073486328125e-06 Z" stroke="none" fill="#3d40af"/>
    </g>
    <g id="Polígono_13" data-name="Polígono 13" transform="translate(331.485 201.951) rotate(128)" fill="#2e3192">
      <path d="M 24.00114822387695 19.99736022949219 L 0.8885061740875244 19.99736022949219 L 12.44482707977295 0.9634273052215576 L 24.00114822387695 19.99736022949219 Z" stroke="none"/>
      <path d="M 12.44482707977295 1.926870346069336 L 1.77702522277832 19.49736022949219 L 23.11262893676758 19.49736022949219 L 12.44482707977295 1.926870346069336 M 12.44482707977295 1.9073486328125e-06 L 24.88965797424316 20.49736022949219 L -3.814697265625e-06 20.49736022949219 L 12.44482707977295 1.9073486328125e-06 Z" stroke="none" fill="#3d40af"/>
    </g>
    <g id="Polígono_6" data-name="Polígono 6" transform="translate(911.831 408.669) rotate(-131)" fill="#2e3192">
      <path d="M 24.00114822387695 19.99736213684082 L 0.8885071277618408 19.99736213684082 L 12.44482803344727 0.963428258895874 L 24.00114822387695 19.99736213684082 Z" stroke="none"/>
      <path d="M 12.44482803344727 1.926870346069336 L 1.777027130126953 19.49736213684082 L 23.11262893676758 19.49736213684082 L 12.44482803344727 1.926870346069336 M 12.44482803344727 1.9073486328125e-06 L 24.88965797424316 20.49736213684082 L -1.9073486328125e-06 20.49736213684082 L 12.44482803344727 1.9073486328125e-06 Z" stroke="none" fill="#3d40af"/>
    </g>
    <g id="Polígono_10" data-name="Polígono 10" transform="translate(1118.831 221.669) rotate(-131)" fill="#2e3192">
      <path d="M 24.00114822387695 19.99736213684082 L 0.8885071277618408 19.99736213684082 L 12.44482803344727 0.963428258895874 L 24.00114822387695 19.99736213684082 Z" stroke="none"/>
      <path d="M 12.44482803344727 1.926870346069336 L 1.777027130126953 19.49736213684082 L 23.11262893676758 19.49736213684082 L 12.44482803344727 1.926870346069336 M 12.44482803344727 1.9073486328125e-06 L 24.88965797424316 20.49736213684082 L -1.9073486328125e-06 20.49736213684082 L 12.44482803344727 1.9073486328125e-06 Z" stroke="none" fill="#3d40af"/>
    </g>
    <g id="Polígono_17" data-name="Polígono 17" transform="translate(1150.831 123.669) rotate(-131)" fill="#2e3192">
      <path d="M 24.00114822387695 19.99736213684082 L 0.8885071277618408 19.99736213684082 L 12.44482803344727 0.963428258895874 L 24.00114822387695 19.99736213684082 Z" stroke="none"/>
      <path d="M 12.44482803344727 1.926870346069336 L 1.777027130126953 19.49736213684082 L 23.11262893676758 19.49736213684082 L 12.44482803344727 1.926870346069336 M 12.44482803344727 1.9073486328125e-06 L 24.88965797424316 20.49736213684082 L -1.9073486328125e-06 20.49736213684082 L 12.44482803344727 1.9073486328125e-06 Z" stroke="none" fill="#3d40af"/>
    </g>
    <g id="Polígono_14" data-name="Polígono 14" transform="translate(1161.831 392.669) rotate(-131)" fill="#2e3192">
      <path d="M 24.00114822387695 19.99736213684082 L 0.8885071277618408 19.99736213684082 L 12.44482803344727 0.963428258895874 L 24.00114822387695 19.99736213684082 Z" stroke="none"/>
      <path d="M 12.44482803344727 1.926870346069336 L 1.777027130126953 19.49736213684082 L 23.11262893676758 19.49736213684082 L 12.44482803344727 1.926870346069336 M 12.44482803344727 1.9073486328125e-06 L 24.88965797424316 20.49736213684082 L -1.9073486328125e-06 20.49736213684082 L 12.44482803344727 1.9073486328125e-06 Z" stroke="none" fill="#3d40af"/>
    </g>
    <g id="Polígono_7" data-name="Polígono 7" transform="matrix(-0.999, -0.052, 0.052, -0.999, 618.761, 113.548)" fill="#2e3192">
      <path d="M 24.00114822387695 19.99736213684082 L 0.8885061740875244 19.99736213684082 L 12.44482707977295 0.963428258895874 L 24.00114822387695 19.99736213684082 Z" stroke="none"/>
      <path d="M 12.44482707977295 1.926870346069336 L 1.77702522277832 19.49736213684082 L 23.11262893676758 19.49736213684082 L 12.44482707977295 1.926870346069336 M 12.44482707977295 1.9073486328125e-06 L 24.88965797424316 20.49736213684082 L -3.814697265625e-06 20.49736213684082 L 12.44482707977295 1.9073486328125e-06 Z" stroke="none" fill="#3d40af"/>
    </g>
  </g>
</svg>
