<svg xmlns="http://www.w3.org/2000/svg" width="935.659" height="275.34" viewBox="0 0 935.659 275.34">
  <path id="Lo_último_en..." data-name="Lo último en..." d="M182.116,95.56q39,0,61.62,20.085t22.62,53.235q0,27.69-13.26,48.75a136.709,136.709,0,0,1-32.175,35.685q-18.915,14.625-50.9,33.735-15.6,9.36-23.4,14.43H249.2L240.226,367H31.966l1.95-14.04q3.12-22.62,12.09-38.22t28.08-29.25q19.89-14.04,18.72-13.26,46.02-32.76,63.375-46.41t23.985-23.205a38.351,38.351,0,0,0,6.63-22.425,23.388,23.388,0,0,0-6.63-16.965q-6.63-6.825-17.16-6.825h-5.07a31.632,31.632,0,0,0-30.81,27.3l-1.56,10.92H56.926q1.95-30.03,16.77-52.455a97.767,97.767,0,0,1,39.78-34.515q24.96-12.09,56.55-12.09Zm235.706,0q24.18,0,43.485,10.92a78.522,78.522,0,0,1,30.225,30.225q10.92,19.3,10.92,43.1a46.167,46.167,0,0,0-.39,6.435,55.231,55.231,0,0,1-.39,6.825l-11.31,80.34a118.241,118.241,0,0,1-18.72,49.53,106.665,106.665,0,0,1-38.61,35.1q-23.79,12.87-53.82,12.87h-17.55a85.868,85.868,0,0,1-43.29-11.115,81.358,81.358,0,0,1-30.615-30.225,85.21,85.21,0,0,1-9.945-56.16l11.31-80.34q3.9-28.86,19.89-51.09a109.189,109.189,0,0,1,39.975-34.32,112.368,112.368,0,0,1,51.285-12.09Zm-16.38,56.16q-13.26,0-22.23,7.6t-11.31,23.6l-14.04,100.23a20.182,20.182,0,0,0-.39,5.07q0,11.31,6.825,18.72t17.745,7.41q14.43,0,23.205-8.775t10.725-22.425L426.4,178.24q0-11.31-7.02-18.915A23.332,23.332,0,0,0,401.442,151.72Zm255.6,155.61h56.94L705.788,367H513.128l8.19-59.67H580.6l17.55-124.8h-59.28l6.24-44.85q24.96-1.56,57.72-13.845t57.72-28.275h26.13ZM879.094,95.56q25.74,0,45.825,10.92a80.242,80.242,0,0,1,31.4,30.03q11.31,19.11,11.31,43.29,0,10.92-12.09,93.6a113.388,113.388,0,0,1-19.5,50.31,107.67,107.67,0,0,1-40.365,34.71Q870.9,370.9,840.484,370.9h-10.92q-36.27,0-59.475-19.3T746.884,296.41a108.012,108.012,0,0,1,1.17-15.21h69.42a10.147,10.147,0,0,0-.39,3.12V289a23.637,23.637,0,0,0,23.79,23.4h2.34q14.43,0,23.205-8.19a36.967,36.967,0,0,0,11.115-21.06l4.68-33.54a76.243,76.243,0,0,1-25.545,15.21q-14.235,5.07-26.325,5.07-34.32,0-55.77-17.355t-21.45-49.725q0-30.81,15.99-55.38a109.667,109.667,0,0,1,42.51-38.22,121.833,121.833,0,0,1,56.55-13.65Zm-14.82,54.6q-11.7,0-21.645,8.58t-11.505,20.67l-1.95,13.26a19.466,19.466,0,0,1-.39,2.34,25.914,25.914,0,0,0,6.825,22.425q7.215,7.215,18.525,7.215h2.34q11.7,0,21.645-8.58t11.505-20.67l2.73-19.89a24.256,24.256,0,0,0-7.41-18.135,25.25,25.25,0,0,0-18.33-7.215Z" transform="translate(-31.966 -95.56)" fill="#d2fc73" opacity="0.765"/>
</svg>
