<?xml version="1.0" standalone="no"?>
<!DOCTYPE svg PUBLIC "-//W3C//DTD SVG 1.1//EN" "http://www.w3.org/Graphics/SVG/1.1/DTD/svg11.dtd">
<svg xmlns="http://www.w3.org/2000/svg">
<metadata>Generated by Fontastic.me</metadata>
<defs>
<font id="la-mega" horiz-adv-x="512">
<font-face font-family="la-mega" units-per-em="512" ascent="480" descent="-32"/>
<missing-glyph horiz-adv-x="512" />

<glyph glyph-name="arrow-circle-default" unicode="&#98;" d="M256 503c-137 0-247-110-247-247 0-137 110-247 247-247 137 0 247 110 247 247 0 137-110 247-247 247z m0-475c-125 0-228 103-228 228 0 125 103 228 228 228 125 0 228-103 228-228 0-125-103-228-228-228z m186 237l-112-119-13 13 91 99-332 0 0 19 332 0-91 98 13 14z"/>
<glyph glyph-name="diamond" unicode="&#99;" d="M506 315l-127 124c-2 2-5 3-7 3l-234 0c-3 0-6-1-8-3l-127-124c-2-2-3-5-3-7 0-3 1-6 3-8l244-227c2-2 5-3 8-3 2 0 5 1 7 3l244 227c2 2 4 5 4 8 0 2-2 5-4 7z m-149 106l-30-89-54 89z m-46-103l-112 0 56 93z m-75 103l-54-89-29 89z m-103-8l32-95-129 0z m-96-116l134 0 61-181z m218-183l-61 183 122 0z m23 2l60 181 134 0z m67 202l31 95 97-95z"/>
<glyph glyph-name="facebook" unicode="&#100;" d="M385 512l-67 0c-75 0-124-49-124-126l0-58-67 0c-6 0-11-5-11-11l0-84c0-5 5-10 11-10l67 0 0-213c0-5 5-10 11-10l88 0c5 0 10 5 10 10l0 213 79 0c6 0 10 5 10 10l0 84c0 3-1 6-3 8-2 2-4 3-7 3l-79 0 0 49c0 24 6 36 37 36l45 0c6 0 11 5 11 10l0 78c0 6-5 11-11 11z"/>
<glyph glyph-name="search" unicode="&#101;" d="M203 106c-112 0-203 91-203 203 0 112 91 203 203 203 112 0 203-91 203-203 0-44-14-85-37-118l133-133c13-14 13-35 0-48l0 0c-13-13-35-13-48 0l-133 133c-33-23-74-37-118-37z m172 201c0 94-76 171-170 171-94 0-171-77-171-171 0-94 77-170 171-170 94 0 170 76 170 170z"/>
<glyph glyph-name="location" unicode="&#102;" d="M257 509c-98 0-177-78-177-174 0-32 9-64 27-91l140-223c2-4 7-6 12-6 0 0 0 0 0 0 6 0 10 2 13 7l136 224c17 27 25 58 25 89 0 96-79 174-176 174z m126-248l-124-204-127 202c-15 23-22 49-22 76 0 80 66 145 147 145 81 0 147-65 147-145 0-26-7-52-21-74z m-126 160c-49 0-88-40-88-89 0-48 39-88 88-88 50 0 88 41 88 88 0 49-39 89-88 89z m0-148c-33 0-59 27-59 59 0 33 26 59 59 59 32 0 59-26 59-59 0-32-26-59-59-59z"/>
<glyph glyph-name="twiter" unicode="&#103;" d="M510 419c-19-9-39-15-60-17 21 13 38 34 45 59-20-12-42-21-66-26-19 21-46 34-76 34-58 0-105-48-105-107 0-9 1-17 3-25-87 5-164 47-216 113-9-16-14-35-14-55 0-37 19-70 47-89-17 0-33 5-48 13 0 0 0-1 0-1 0-52 37-96 84-106-8-2-18-3-27-3-7 0-13 0-20 1 13-42 52-73 98-74-36-29-81-46-130-46-8 0-17 0-25 1 46-31 101-48 160-48 193 0 298 164 298 306 0 5 0 9-1 14 21 15 39 34 53 56z"/>
<glyph glyph-name="whatsapp" unicode="&#104;" d="M494 263c0-137-106-248-238-248-41 0-81 11-115 30l-132-44 43 134c-21 37-34 81-34 128 0 138 107 249 238 249 132 0 238-111 238-249z m-238 209c-110 0-200-93-200-209 0-45 14-88 38-122l-25-78 77 26c32-22 70-35 110-35 111 0 201 94 201 209 0 116-90 209-201 209z m121-266c-2 3-6 4-12 7-5 3-34 18-39 20-6 2-10 3-14-3-3-6-15-20-18-24-3-4-7-5-13-2-6 3-24 10-47 31-17 16-29 36-32 42-4 6 0 9 2 12 3 3 6 7 9 11 3 4 4 6 6 10 2 4 1 8 0 11-2 3-14 33-18 45-5 12-10 10-14 10-3 0-7 1-11 1-4 0-10-2-15-8-6-6-21-21-21-51 0-30 21-59 24-63 3-4 40-67 100-92 59-24 59-16 70-15 10 1 34 15 39 29 5 14 5 26 4 29z"/>
<glyph glyph-name="angle-down" unicode="&#106;" d="M506 351c-14 17-37 23-55 9l-183-124-209 126c-18 12-41 6-53-13-12-18-6-44 14-54l252-151 222 151c18 12 24 38 12 56z"/>
<glyph glyph-name="angle-left" unicode="&#107;" d="M385 68l-180 184 168 194c10 13 10 33-4 43-12 10-32 10-42-4l-206-237 220-225c6-6 14-8 22-8 8 0 16 2 22 8 10 12 10 32 0 45z"/>
<glyph glyph-name="arrow-right" unicode="&#108;" d="M491 250c2 3 2 9 0 12 0 2-3 2-3 5l-140 140c-5 5-14 5-19 0-6-6-6-14 0-20l114-114-410 0c-9 0-14-6-14-14 0-9 5-14 14-14l413 0-115-115c-5-5-5-14 0-19 3-3 6-3 12-3 5 0 8 0 11 3l139 139c-2-2-2-2-2 0z"/>
<glyph glyph-name="caret-right" unicode="&#109;" d="M420 288l-294 206c-5 5-10 5-20 0-5 0-5-5-5-15l0-441c0-5 5-15 10-15 0 0 5 0 10 0 5 0 10 0 10 5l294 235c0 0 5 5 5 10 0 5-5 10-10 15z m-284-216l0 373 250-177z"/>
<glyph glyph-name="close" unicode="&#110;" d="M307 256l182 172c14 14 14 35 2 49-14 14-35 14-49 2l-186-174-186 174c-14 14-35 12-49-2-14-14-12-35 2-49l182-172-175-165c-14-14-14-35-2-49 7-7 16-12 26-12 9 0 16 3 23 10l177 167 186-174c7-7 16-10 23-10 9 0 19 5 26 12 14 14 11 37-3 49z"/>
<glyph glyph-name="credit-photo" unicode="&#111;" d="M461 461l-410 0c-27 0-51-24-51-51l0-308c0-27 24-51 51-51l410 0c27 0 51 24 51 51l0 308c0 27-24 51-51 51z m0-359l-410 0 0 308 410 0z m-34 273l-342 0 0-238 342 0z m-34-204l-274 0 0 170 274 0z"/>
<glyph glyph-name="hamburger" unicode="&#113;" d="M29 412l360 0c15 0 24 10 24 24 0 15-9 24-24 24l-360 0c-15 0-24-9-24-24 0-14 9-24 24-24z m457-120l-457 0c-15 0-24-10-24-24 0-14 9-24 24-24l457 0c14 0 24 10 24 24 0 14-12 24-24 24z m-97-192l-360 0c-15 0-24-10-24-24 0-15 9-24 24-24l360 0c15 0 24 9 24 24 0 14-12 24-24 24z"/>
<glyph glyph-name="plus" unicode="&#114;" d="M450 304l-136 0 0 136c0 33-25 58-58 58-33 0-58-25-58-58l0-136-136 0c-33 0-58-25-58-58 0-33 25-58 58-58l136 0 0-116c0-33 25-58 58-58 33 0 58 25 58 58l0 116 136 0c33 0 58 25 58 58 0 33-25 58-58 58z"/>
<glyph glyph-name="plus2" unicode="&#115;" d="M459 292l-161 0 0 161c0 23-18 42-42 42-24 0-42-19-42-42l0-161-161 0c-23 0-42-18-42-42 0-24 19-42 42-42l161 0 0-152c0-24 18-42 42-42 24 0 42 18 42 42l0 152 161 0c23 0 42 18 42 42 0 24-19 42-42 42z"/>
<glyph glyph-name="triangle-down" unicode="&#116;" d="M256 114l-256 284 512 0z"/>
<glyph glyph-name="hourglass" unicode="&#118;" d="M419 406l0 45c14 9 19 23 19 37l0 9c0 4-5 9-9 9l-346 0c-4 0-9-5-9-9l0-9c0-14 9-28 19-37l0-45c0-41 18-82 45-109l45-41-45-41c-32-27-45-68-45-109l0-45c-14-9-19-23-19-37l0-9c0-4 5-9 9-9l346 0c4 0 9 5 9 9l0 9c0 14-9 28-19 37l0 45c0 41-18 82-45 109l-45 41 45 41c27 27 45 68 45 109z m-131-132c-5-4-9-9-9-18 0-9 4-14 9-18l68-64c23-22 36-54 36-86l0-41-27 0-100 136c-4 5-14 5-18 0l-100-131-27 0 0 41c0 31 13 63 36 86l73 59c4 4 9 9 9 18 0 9-5 14-9 18l-73 59c-23 23-36 55-36 86l0 41 272 0 0-41c0-31-13-63-36-86z"/>
<glyph glyph-name="programas" unicode="&#119;" d="M474 249l0 95c0 0-1 1-1 1 0 0-1 1-2 1l-105-19c-1 0-1-1-1-1l0-140c0 0 0-1 0-1 0-28-23-51-51-51-29 0-52 23-52 52 0 28 23 51 52 51 9 0 18-3 25-7l0 95c0 14 10 25 23 28l105 18c8 1 16-1 22-6 7-5 10-13 10-21l0-135c0-1 0-1 0-1 0-1 0-2 0-3 0-28-23-51-51-51-28 0-51 23-51 51 0 28 23 51 51 51 9 0 18-2 26-7z m-160-89c14 0 25 11 25 26 0 14-11 25-25 25-15 0-26-11-26-25 0-15 11-26 26-26z m134 19c14 0 26 12 26 26 0 14-12 25-26 25-14 0-26-11-26-25 0-14 12-26 26-26z m-413-29c-7 0-13 5-13 13 0 7 6 12 13 12l173 0c7 0 13-5 13-12 0-8-6-13-13-13z m0 173c-7 0-13 5-13 12 0 7 6 13 13 13l269 0c7 0 13-6 13-13 0-7-6-12-13-12z m0-117c-7 0-13 6-13 13 0 7 6 13 13 13l173 0c7 0 13-6 13-13 0-7-6-13-13-13z m0 59c-7 0-13 6-13 13 0 7 6 13 13 13l250 0c7 0 13-6 13-13 0-7-6-13-13-13z"/>
<glyph glyph-name="famosos" unicode="&#120;" d="M256 150l111-53-21 111 88 77-122 16-56 103-56-103-122-16 88-77-21-111z m-150-104l28 151-123 109 170 22 75 136 75-136 170-22-123-109 28-151-150 72z m100 134l50 21 50-21-9 44 37 29-52 6-26 43-26-43-52-6 37-29z m50-3l-81-34 16 72-69 54 95 11 39 64 39-64 95-11-69-54 16-72z"/>
<glyph glyph-name="cine" unicode="&#121;" d="M430 178c20 7 42 3 67-11l-14-33c-25 16-54 13-85-7-4-4-8-9-12-13-83-83-219-83-303 0-83 84-83 219 0 303 84 84 220 84 303 0 65-65 80-160 44-239z m-327 220c-73-73-73-191 0-264 73-73 191-73 264 0 72 73 72 191 0 264-73 72-191 72-264 0z m113-97c20 11 44 4 55-15 11-20 4-44-16-55-19-11-44-4-54 16-11 19-4 44 15 54z m14-24c-6-3-8-11-5-17 3-6 11-8 17-5 6 4 8 11 5 17-4 6-11 8-17 5z m94 69c23 13 53 4 66-19 13-24 4-53-19-66-24-13-53-5-66 19-13 23-5 53 19 66z m-110 83c23 13 53 4 66-19 13-24 5-53-19-66-23-13-53-5-66 19-13 23-4 53 19 66z m-112-76c24 13 53 5 66-19 13-23 5-53-19-66-23-13-53-4-66 19-13 24-4 53 19 66z m40-138c23 13 53 4 66-19 13-23 5-53-19-66-23-13-53-4-66 19-13 24-4 53 19 66z m144 0c23 13 53 4 66-19 13-24 5-53-19-66-23-13-53-5-66 19-13 23-4 53 19 66z"/>
<glyph glyph-name="cultura" unicode="&#122;" d="M252 34c77 0 122 48 137 147 5 43-39 66-139 66-99 0-143-22-139-66 17-99 64-147 141-147z m-162 144l0 1c-7 60 49 90 160 90 111 0 167-30 160-91-16-109-69-165-158-165-89 0-143 56-162 165z m234-25c-19-8-36 2-38 16-1 14 11 25 36 27 25 3 47-6 48-20 1-13-26-16-46-23z m-142 0c-20 7-47 10-45 23 1 14 23 23 48 20 25-2 37-13 35-27-1-14-18-24-38-16z m70 180c-33 0-54 26-54 61 0 35 30 112 54 112 23 0 52-77 52-112 0-35-19-61-52-61z m-10 114c-8-21-14-43-14-53 0-20 9-32 24-32 14 0 23 12 23 32 0 10-6 32-14 53-3 8-6 15-9 21-3-6-7-13-10-21z m-146-192c-6 0-11 5-11 11 0 6 5 11 11 11 6 0 11-5 11-11 0-6-5-11-11-11z m299 0c-6 0-11 5-11 11 0 6 5 11 11 11 6 0 10-5 10-11 0-6-4-11-10-11z m-304 77c-15 21-30 80-14 91 16 12 66-20 82-42 15-21 15-47-6-63-21-15-46-8-62 14z m12 51c4-14 9-28 13-33 6-10 13-12 19-8 6 5 6 12-1 22-3 5-15 15-27 23-2 1-4 2-6 3 1-2 1-4 2-7z m313-50c-14-22-39-31-60-17-22 14-24 40-9 63 14 22 62 57 79 46 16-11 5-70-10-92z m-14 51c1 2 1 4 1 7-1-2-3-3-5-4-12-9-23-19-26-24-7-10-6-18 0-22 6-4 13-2 19 8 4 5 8 20 11 35z m-270-117c-6-2-12 1-14 7-2 5 1 11 6 13 77 27 166 28 245 2 6-2 9-8 7-13-1-6-7-9-13-7-76 24-159 24-231-2z"/>
<glyph glyph-name="medio-ambiente" unicode="&#65;" d="M400 144c47 41 74 101 69 151-2 29-8 47-18 61-4 5-16 18-19 21-8 12-9 25-3 40 5 10 3 18-4 25-3 2-5 3-8 5-1-2-1-3-2-5-3-10-7-25-11-44l-2-9-8-2c-20-6-34-12-41-16 12-9 21-10 29-5 37 20 56-8 56-61 0-58-33-72-81-37l-2 2c-43 44-114 60-215 46-9-1-16 5-17 13-2 9 4 16 13 17 109 15 190-3 240-54 27-21 32-18 32 13 0 34-3 39-11 35-19-12-42-9-64 8-16 12-17 30-2 44 9 7 24 14 46 21 9 42 15 58 25 64 11 6 30-1 43-13 16-15 22-36 12-59-3-6-2-7 0-10 1-1 13-15 18-21 13-19 22-43 25-76 4-60-25-127-77-174 4-4 9-9 11-12 6-5 11-10 14-15 9-12 14-22 14-33-1-15-13-24-31-28-29-5-55 1-82 17 0 0 0 0-1 0-8 5-17 11-25 17l0 0c-23-6-48-10-74-10-148 0-255 108-229 195 10 33 49 57 87 57 37 0 60-16 100-57 5-4 7-6 9-9 35-34 54-44 81-35 8 3 17-1 20-9 2-8-2-16-10-19-41-15-70 0-112 42-2 2-5 5-9 9-35 35-53 47-79 47-26 0-52-16-58-35-20-65 70-155 200-155 16 0 31 1 45 4-6 5-11 10-16 15-5 6-10 11-12 14-5 7-4 16 3 22 6 5 16 4 21-3 2-2 6-7 11-12 8-10 18-19 29-28 3-3 7-6 10-8 1-1 2-1 2-2 2-1 8-5 9-6 4-2 8-4 11-6 22-14 42-19 63-15 6 1 6 1 6 1 0 1-2 5-6 11-3 4-7 8-12 13-4 4-18 17-16 16-1 0-2 1-2 2-14 13-26 22-34 27-8 4-10 13-6 20 4 8 14 10 21 6 7-4 15-10 24-18z m-110 96c-12 0-34 4-34 18 0 14 9 28 32 17 23-11 50 3 50-14 0-17-37-21-48-21z m-181 80c-3 0-7 3-7 7 0 3 4 7 7 7 4 0 7-4 7-7 0-4-3-7-7-7z"/>
<glyph glyph-name="moda" unicode="&#66;" d="M498 363c-3-21-6-45-9-75-2-12-3-24-5-40-10-89-12-106-16-136-9-66-11-73-27-73l-54 0 1 14c0 15-1 58-3 127-1 28-4 46-7 53-3-2-6-6-10-12-1 0-1-1-1-1-15-21-25-42-30-60-24-95-51-133-121-133-49 0-112 14-188 41l-4 2-2 3c-17 22-5 43 25 55 8 3 18 8 34 15 1 0 1 0 2 1 50 22 58 25 66 25 7 0 11-2 17-7 1-2 9-8 10-10 12-10 19-13 26-8 20 13 61 110 86 201 21 74 54 123 86 138 19 8 57-14 88-45 27-27 41-54 36-75z m-32-37c-26-23-51-47-71-70 0-1 1-1 1-2 10-11 14-34 16-73 1-55 2-93 3-115l18 0c0 2 1 4 1 7 2 9 4 24 7 43 4 30 6 47 16 135 2 16 4 28 5 40 1 13 3 24 4 35z m-250-272c53 0 73 28 95 113 15 60 80 133 155 194 12 9 4 31-23 58-23 22-54 41-57 39-25-11-53-53-72-120-27-98-69-198-97-217-20-13-38-7-58 11-9 7-11 9-11 10-5-1-22-9-54-23-1 0-1 0-2-1-16-7-26-11-35-15-12-5-16-8-15-11 71-25 130-38 174-38z"/>
<glyph glyph-name="mujer" unicode="&#67;" d="M97 263c-7-9-12-19-13-31-1-4-1-7-1-11 0-1 0-2 0-2 0-2 0-3-1-4-1-21-2-42-2-65 8-74 25-109 44-109 8 0 19 0 36 0 24 0 24 0 53 0 22 0 22 0 44 0 84 0 133 0 141 0-2 0 0 2 3 6 5 7 10 17 15 29 11 29 17 65 15 100 0 3 0 6 0 11-1 7-1 14-1 20-6 21-13 38-22 52-2-91-70-165-153-165-83 0-149 71-158 169z m67 114c2 5 4 10 6 15 0 0 5 19 7 23l0 1c0 2 0 5 2 8 3 7 11 11 18 10 4-1 6-2 8-3 0-1 1-1 1-1 8-4 12-10 19-23 0 0 0 0 0 0 7-9 14-17 22-25 14-13 28-23 43-30 8-3 17-6 26-9 4-1 8-1 17-3 3 0 3 0 6-1 9-1 17-3 25-6 23-7 42-20 58-37-1 6-2 12-4 18-20 100-69 156-161 156-83 0-137-53-161-161 30 22 54 46 68 68z m30-17c-2-4-3-7-5-11-7-13-17-24-30-36-4-4-21-18-24-21-4-4-5-6-5-5 0-93 56-159 125-159 65 0 119 60 119 135 0 21-5 31-18 37-9 3-19 5-29 6-19 2-36 7-52 15-33 14-57 34-72 56-3-5-6-11-9-17z m-145-138c0 5 0 11 1 16 17 175 86 266 207 266 111 0 171-69 195-183 7-35 10-60 12-110 0 0 0-1 0-1 0-7 0-14 1-22 0-4 0-8 0-11 4-80-30-169-66-170-9 0-57 0-142 0-22 0-22 0-44 0-29 0-29 0-53 0-17 0-28 0-36 0-44 0-68 49-78 141l0 2c0 25 1 49 3 72z m261 10c-15-6-28 2-30 13-1 11 9 21 28 23 19 2 36-5 37-16 1-12-20-13-35-20z m-116 0c-16 7-37 8-35 20 1 11 17 18 37 16 19-2 28-12 27-23-1-11-14-19-29-13z"/>
<glyph glyph-name="deportes" unicode="&#68;" d="M410 396c-39-27-61-65-67-115l118 0c-5 44-23 84-51 115z m-28 27c-30 23-66 38-105 42l0-184 28 0c6 60 32 108 77 142z m24-308c32 34 52 79 56 128l-120 0c3-56 24-98 64-128z m-29-25c-46 36-70 88-73 153l-27 0 0-192c37 4 71 18 100 39z m-269 24c42 29 64 72 66 129l-124 0c4-50 25-95 58-129z m29-26c29-21 64-34 102-37l0 192-27 0c-3-66-28-118-75-155z m-33 310c-29-32-48-72-53-117l122 0c-6 51-29 90-69 117 0 0 0 0 0 0z m28 26c47-34 73-82 79-143l28 0 0 185c-40-4-77-19-107-42z m368-163c0-1 0-2 0-3 0-135-108-244-241-246 0 0-1 0-1 0 0 0 0 0 0 0-1 0-1 0-2 0-135 0-244 110-244 246 0 1 0 2 0 3 0 0 0 1 0 1 0 1 0 1 0 2 3 133 111 240 244 240 133 0 241-107 244-240 0-1 0-1 0-2 0 0 0-1 0-1z"/>
<glyph glyph-name="educacion" unicode="&#69;" d="M324 459c33 41 73 46 113 12 13-11 21-22 26-35 8-24 3-49-10-72-5-9-11-16-14-20l-8-9-1 0-238-288-1 1-101-36c-17-6-35 3-40 19-2 5-3 11-2 17l20 105 1-1 255 308z m84-71l21-18c1 2 2 4 3 6 10 18 14 36 8 52-3 8-9 16-18 24-29 24-54 23-78-7z m-338-345c-1-1-1-3 0-5 2-5 7-7 13-6l67 24-67 57z m257 378l-221-266 83-70 220 267z m-34-76c4 4 10 5 15 1 4-4 5-10 1-15l-126-150c-3-4-10-5-14-1-4 4-5 10-1 14z"/>
<glyph glyph-name="musica" unicode="&#70;" d="M455 236l0 214c0 3-2 5-4 7-2 2-5 3-8 2l-212-38c-5-1-8-5-8-10l0-295c0 0 0 0 0 0 0-60-47-107-106-107-58 0-106 48-106 107 0 59 48 107 106 107 25 0 47-8 65-22l0 210c-1 25 17 46 42 50l212 39c15 3 30-1 42-11 12-10 18-25 18-39l0-285c0-1 0-3 0-4 0-4 0-7 0-10 0-60-47-108-106-108-59 0-106 48-106 108 0 59 47 107 106 107 24 0 47-8 65-22z m-338-186c36 0 65 30 65 66 0 36-29 66-65 66-35 0-64-30-64-66 0-36 29-66 64-66z m273 35c36 0 65 29 65 66 0 36-29 66-65 66-35 0-64-30-64-66 0-37 29-66 64-66z"/>
<glyph glyph-name="viajes" unicode="&#71;" d="M305 227c-12-5-26-6-42-3-1-9-2-18-3-28 0-1 1-1 1-1 23-11 41-9 54 5-3 10-6 19-10 27z m-8 20c-9 18-19 35-29 49-3 5-6 9-9 12 0-1 1-3 1-5 4-15 5-34 5-56 13-4 23-3 32 0z m25-70c-18-14-40-15-65-4-2-13-5-26-8-40 28-15 56-14 84 3-3 14-7 28-11 41z m16-63c-31-17-62-19-93-4-5-20-10-42-16-65 61-4 100-6 118-6 0 2 0 5 0 9 0 13-2 32-7 54 0 4-1 8-2 12z m-104 183l-71-111-10 9c-51 49-58 103-18 160-37 3-68-11-94-42l-3-4-5 0c-6 0-9 3-11 7-1 2-1 4-1 6 0 2 0 5 1 8 1 6 3 13 6 21 8 20 20 39 35 55 42 44 100 55 171 20 80 99 163 84 247-18l15-18-24 0c-15 0-39-2-57-5 25-17 36-44 34-74-2-14-6-28-11-39-2-5-4-9-7-11-1-3-3-4-6-5-7-3-12 0-15 5-31 38-73 59-128 62 17-20 34-51 47-82 14-35 29-88 38-134 4-23 7-44 7-58 1-23-4-37-21-37-15 0-62 2-142 8l-17 1 5 16c34 125 46 213 35 260z m-77 76l18-4-12-14c-41-49-42-92-4-134l80 124 5 0c75 5 133-15 175-60 4 8 7 18 7 28 3 31-11 54-50 67l-29 9 28 12c10 4 44 8 74 10-72 79-136 82-203-6l-6-7-9 4c-65 36-115 28-151-11-10-10-19-22-25-35 29 20 64 26 102 17z m40-7c2 1 4 1 6 0 2-2 2-5 0-7-1-1-3-3-6-6-4-5-8-11-13-18-11-19-18-41-18-66 0-2-2-4-4-4-3 0-5 2-5 4 0 26 8 50 20 71 4 7 9 13 13 19 3 3 5 6 7 7z m10 25c3-1 3-4 2-6-2-2-4-2-6-1-17 11-43 14-76 8-3 0-5 1-5 4-1 2 1 4 3 5 36 6 63 3 82-10z m74-8c41 2 82-13 122-46 2-1 3-4 1-6-1-2-4-2-6-1-39 32-78 46-116 44-3 0-5 2-5 4 0 3 2 5 4 5z m8 20c-1-1-4-2-6 0-2 1-2 4-1 6 26 31 64 40 114 29 2-1 4-3 3-6 0-2-3-4-5-3-47 11-82 2-105-26z"/>
<glyph glyph-name="vida-saludable" unicode="&#72;" d="M129 260c-62-29-84-127-25-172 60-45 180-48 265-23 61 18 75 29 75 62 0 37-10 109-20 159-1 6-6 29-6 31-3 13-5 23-7 34-6 28-12 53-18 78-5 19-23 31-53 36-12 2-26 3-43 3-6 0-23 0-24 0-26 0-32-5-41-39-8-28 1-39 45-51 16-4 20-3 22 1 1 0 1 1 3 3 9 14 21 20 40 13 31-11 40-42 33-86l-1-3c-21-53-36-92-48-116-6-13-10-22-14-27-4-5-7-8-11-10-12-4-22 2-25 12-30 104-79 126-147 95z m202 103c-3 2 0 3-2 1-2-4-2-4-3-5-12-16-29-20-57-13-61 16-83 44-69 92 13 47 30 63 73 63 1 0 18 0 24 0 19 0 34-1 49-3 41-8 70-26 79-60 7-26 13-52 19-80 2-11 4-22 7-35 0-2 5-25 6-31 10-51 20-126 20-165 0-51-25-72-98-94-95-28-225-24-295 28-81 62-52 190 31 229 79 37 144 13 182-83 11 23 26 59 45 109 5 29 0 43-11 47z"/>
<glyph glyph-name="paranormal" unicode="&#73;" d="M48 106c0-1-1-1-1-2-5-40 5-54 35-54 32 0 43 9 41 32l37 0c-2-23 8-32 41-32 33 0 44 10 42 34l38 1c0-25 10-35 37-35 27 0 38 11 39 36 1 2 38 2 38 1 2-27 12-37 34-37 22 0 33 13 36 44l0 218c-16 102-83 152-209 152-125 0-193-50-208-152 0-69 0-137 0-206z m-38 1l0 206 0 3c18 123 102 186 246 186 144 0 228-63 247-186l0-3 0-221c-5-50-31-79-74-79-23 0-41 7-53 21-14-14-33-21-58-21-24 0-43 6-56 19-13-13-34-19-61-19-26 0-46 6-60 17-13-11-33-17-59-17-54 0-80 35-72 94z m155 77c-28 0-51 35-51 79 0 43 23 79 51 79 28 0 51-36 51-79 0-44-23-79-51-79z m183 5c-28 0-51 35-51 79 0 43 23 78 51 78 28 0 50-35 50-78 0-44-22-79-50-79z"/>
<glyph glyph-name="eventos" unicode="&#74;" d="M262 218c4 0 7-3 7-7l0-48c0-3-3-6-7-6-3 0-6 3-6 6l0 48c0 4 3 7 6 7z m0 76c4 0 7-2 7-6l0-48c0-3-3-6-7-6-3 0-6 3-6 6l0 48c0 4 3 6 6 6z m0 77c4 0 7-3 7-6l0-48c0-4-3-7-7-7-3 0-6 3-6 7l0 48c0 3 3 6 6 6z m205-268l0 307-394 0c-3-13-11-22-22-29-5-3-9-5-13-6l0-24c18-7 27-22 27-43 0-21-9-35-27-42l0-25c24-3 37-17 37-39 0-19-10-33-26-40-3-1-7-2-11-3l0-22c14-7 23-19 26-34z m-427-25l0 12c0 14-6 22-19 27l-8 3 0 63 13 0c0 0 0 0 0 0 1 0 2 0 4 0 3 1 6 2 9 3 7 3 10 8 10 16 0 10-5 15-23 15l-13 0 0 69 10 2c12 2 17 8 17 20 0 12-5 18-17 20l-10 2 0 65 10 2c3 1 9 2 14 6 8 4 12 11 12 19l0 13 444 0 0-357z m177 161c0-9-2-17-6-25-5-7-11-13-18-18-8-4-16-6-25-6l-6 0c-9 0-17 2-25 6-7 5-13 11-17 18-5 8-7 16-7 25l0 46c0 9 2 18 7 25 4 8 10 14 17 18 8 4 16 7 25 7l6 0c9 0 17-3 25-7 7-4 13-10 18-18 4-7 6-16 6-25z m-30 50c0 6-2 11-6 15-5 4-10 7-16 7-6 0-11-3-15-7-5-4-7-9-7-15l0-53c0-6 2-12 7-16 4-4 9-6 15-6 6 0 11 2 16 6 4 4 6 10 6 16z m137-72l34 0 0 80-35 0 0 18c8 1 17 3 26 6 10 4 19 8 28 13l11 0 0-117 33 0 0-25-97 0z"/>
<glyph glyph-name="reviews" unicode="&#75;" d="M74 439l362 0c37 0 67-31 67-68l0-155c0-22-15-40-36-43l-7-1c-6-1-11-5-14-10l-44-78-43 75c-4 6-10 10-17 10l-268 0c-37 0-67 30-67 68l0 134c0 37 30 68 67 68z m345-261c8 13 21 22 36 24l7 1c6 1 10 6 10 13l0 155c0 20-16 36-36 36l-362 0c-20 0-36-16-36-36l0-134c0-21 16-37 36-37l268 0c18 0 35-10 44-25l16-28z m-308 100l-39-20 8 43-32 31 44 7 19 39 20-39 44-7-32-31 8-43z m134 0l-39-20 7 43-32 31 44 7 20 39 19-39 44-7-31-31 7-43z m133 0l-39-20 8 43-32 31 44 7 19 39 20-39 44-7-32-31 8-43z"/>
<glyph glyph-name="videos" unicode="&#76;" d="M79 362c-26 0-47-21-47-47l0-118c0-26 21-47 47-47l159 0c26 0 48 21 48 47l0 118c0 26-22 47-48 47z m0 32l159 0c44 0 79-36 79-79l0-118c0-43-35-79-79-79l-159 0c-44 0-79 36-79 79l0 118c0 43 35 79 79 79z m259-93l96 77c7 6 16 9 25 9 22 0 39-17 39-39l0-180c0-10-3-18-9-25-13-17-38-20-55-6l-96 78z m31-71l85-69c3-2 8-2 11 2 1 1 2 3 2 5l0 180c0 4-4 8-8 8-2 0-4-1-5-2l-85-68z"/>
<glyph glyph-name="tecnologia" unicode="&#78;" d="M260 254l51 0c5 0 9-4 9-9l0-1c0-5-4-9-9-9l-61 0c-5 0-9 4-9 9l0 1c0 1 0 1 0 2 0 0 0 1 0 1l0 94c0 5 4 9 9 9l1 0c5 0 9-4 9-9z m58-203c4-5 6-11 6-17 0-19-16-34-34-34l-75 0c-19 0-34 15-34 34 0 6 2 12 5 17-12 6-20 17-20 31 0 7 2 14 6 19l-1 0c-34 0-61 27-61 61l0 191c0 34 26 61 59 62-2 4-3 9-3 15 0 14 8 25 20 31-3 5-5 11-5 17 0 19 15 34 34 34l75 0c18 0 34-15 34-34 0-6-2-12-6-17 12-6 21-17 21-31 0-6-2-11-4-15l6 0c34 0 61-28 61-62l0-191c0-34-27-61-61-61l-8 0c3-5 6-12 6-19 0-14-9-25-21-31z m-147 332c-16 0-30-13-30-30l0-191c0-16 14-29 30-29l170 0c16 0 30 13 30 29l0 191c0 17-14 30-30 30z m29 56c-5 0-10-4-10-9 0-5 5-9 10-9l105 0c5 0 9 4 9 9 0 5-4 9-9 9z m15 49c-5 0-10-5-10-10 0-5 5-9 10-9l75 0c5 0 9 4 9 9 0 5-4 10-9 10z m90-415c5 0 9 4 9 9 0 5-4 9-9 9l-105 0c-5 0-10-4-10-9 0-5 5-9 10-9z m-15-49c5 0 9 5 9 10 0 5-4 9-9 9l-75 0c-5 0-10-4-10-9 0-5 5-10 10-10z"/>
<glyph glyph-name="series" unicode="&#79;" d="M346 136c19-10 38-24 57-41 8-7 9-19 1-27-7-8-19-9-27-2-73 67-142 67-213 0-8-7-20-6-28 1-7 8-7 21 1 28 19 17 38 31 56 41l-163 0c-17 0-30 13-30 30l0 271c0 16 13 30 30 30l452 0c17 0 30-14 30-30l0-271c0-17-13-30-30-30z m-307 292l0-253 434 0 0 253z m247-74c-8 7-9 20-1 27 7 8 19 9 27 1l70-64-67-72c-8-8-20-8-28-1-8 8-8 20-1 28l40 43z m-85-44l-40 37c-8 8-9 20-1 28 7 8 19 8 27 1l69-64-66-72c-8-8-20-8-28-1-8 7-8 20-1 28z"/>
<glyph glyph-name="angle-right" unicode="&#105;" d="M129 23c6-6 14-8 22-8 8 0 16 2 22 8l220 225-206 237c-10 14-30 14-42 4-14-10-14-30-4-43l168-194-180-184c-10-13-10-33 0-45z"/>
<glyph glyph-name="underscore" unicode="&#97;" d="M0 313l512 0 0-114-512 0z"/>
<glyph glyph-name="linkedin" unicode="&#112;" d="M192 320l89 0 0-45 1 0c12 22 42 45 87 45 94 0 111-58 111-134l0-154-92 0 0 137c0 32-1 74-48 74-48 0-56-35-56-72l0-139-92 0z m-160 0l96 0 0-288-96 0z m96 80c0-27-21-48-48-48-27 0-48 21-48 48 0 27 21 48 48 48 27 0 48-21 48-48z"/>
<glyph glyph-name="rss" unicode="&#80;" d="M68 137c-37 0-68-31-68-69 0-37 31-67 68-67 38 0 68 30 68 67 0 38-30 69-68 69z m-68 201l0-98c64 0 124-25 169-70 46-46 70-106 70-170l99 0c0 186-152 338-338 338z m0 174l0-98c228 0 414-186 414-414l98 0c0 282-230 512-512 512z"/>
<glyph glyph-name="youtube" unicode="&#82;" d="M203 185l138 72-138 72 0-144z m53 246c108 0 179-5 179-5 10-1 32-1 52-21 0 0 15-16 20-51 5-42 5-83 5-83l0-39c0 0 0-41-5-83-5-35-20-51-20-51-20-20-42-20-52-21 0 0-71-6-179-6-133 2-174 6-174 6-11 2-37 1-57 21 0 0-15 16-20 51-5 42-5 83-5 83l0 39c0 0 0 41 5 83 5 35 20 51 20 51 20 20 42 20 52 21 0 0 71 5 179 5z"/>
<glyph glyph-name="instagram" unicode="&#81;" d="M244 156c-29 0-53 10-72 29-19 19-28 42-28 71 0 29 9 52 28 71 19 19 43 29 72 29 28 0 51-10 71-30 19-19 29-43 29-70 0-27-10-51-29-70-20-20-43-30-71-30z m100 0c28 24 43 57 46 100l100 0 0-181c0-17-5-32-17-44-11-13-25-19-43-19l-367 0c-17 0-32 6-44 19-13 12-19 27-19 44l0 181 100 0c3-42 18-75 44-100 26-27 59-41 100-41 37-3 71 11 100 41z m84 344c17 0 31-6 42-17 12-11 18-24 18-40l0-147-109 0c-6 22-17 42-35 60-26 29-59 44-100 44-38 0-72-15-100-44-18-18-30-38-35-60l-109 0 0 144c0 17 6 31 19 43 12 11 27 17 44 17z m20-106l0 49c0 4-2 8-6 12-3 3-7 5-12 5l-48 0c-5 0-9-2-12-5-4-4-6-8-6-12l0-49c0-4 2-8 6-12 3-4 7-6 12-6l48 0c5 0 9 2 12 6 4 4 6 8 6 12z"/>
<glyph glyph-name="pause" unicode="&#83;" d="M118 496c-23 0-39-16-39-39l0-406c0-23 16-39 39-39 24 0 40 16 40 39l0 406c0 23-16 39-40 39z m276 0c-24 0-40-16-40-39l0-406c0-23 16-39 40-39 23 0 39 16 39 39l0 406c0 23-16 39-39 39z"/>
<glyph glyph-name="microphone-slash" unicode="&#84;" d="M132 242l-29-29c-8 20-12 40-12 61l0 37c0 5 2 9 6 13 3 3 8 5 13 5 5 0 9-2 13-5 3-4 5-8 5-13l0-37c0-10 1-21 4-32z m319 172l-104-103 0-37c0-25-9-46-26-64-18-18-40-27-65-27-10 0-21 2-31 5l-28-27c19-10 38-15 59-15 35 0 65 13 90 38 25 25 38 55 38 90l0 37c0 5 2 9 5 13 4 3 8 5 13 5 5 0 10-2 13-5 4-4 6-8 6-13l0-37c0-42-14-78-43-110-28-31-62-49-104-53l0-38 73 0c5 0 10-2 13-5 4-4 6-8 6-13 0-5-2-9-6-13-3-4-8-5-13-5l-182 0c-5 0-10 1-13 5-4 4-6 8-6 13 0 5 2 9 6 13 3 3 8 5 13 5l73 0 0 38c-24 2-46 10-67 23l-73-73c-2-1-4-2-7-2-2 0-4 1-6 2l-24 24c-1 2-2 4-2 6 0 3 1 5 2 7l353 353c2 1 4 2 7 2 2 0 4-1 6-2l24-24c1-2 2-4 2-6 0-3-1-5-2-7z m-109 38l-177-178 0 147c0 25 9 46 26 64 18 18 40 27 65 27 19 0 37-6 53-17 15-11 27-26 33-43z"/>
<glyph glyph-name="microphone" unicode="&#85;" d="M421 311l0-37c0-42-14-78-43-110-28-31-62-49-104-53l0-38 73 0c5 0 10-2 13-5 4-4 6-8 6-13 0-5-2-9-6-13-3-4-8-5-13-5l-182 0c-5 0-10 1-13 5-4 4-6 8-6 13 0 5 2 9 6 13 3 3 8 5 13 5l73 0 0 38c-42 4-76 22-104 53-29 32-43 68-43 110l0 37c0 5 2 9 6 13 3 3 8 5 13 5 5 0 9-2 13-5 3-4 5-8 5-13l0-37c0-35 13-65 38-90 25-25 55-38 90-38 35 0 65 13 90 38 25 25 38 55 38 90l0 37c0 5 2 9 5 13 4 3 8 5 13 5 5 0 10-2 13-5 4-4 6-8 6-13z m-74 110l0-147c0-25-9-46-26-64-18-18-40-27-65-27-25 0-47 9-65 27-17 18-26 39-26 64l0 147c0 25 9 46 26 64 18 18 40 27 65 27 25 0 47-9 65-27 17-18 26-39 26-64z"/>
<glyph glyph-name="tendencias" unicode="&#77;" d="M118 108c16-17 59-43 102-53 61-14 118 1 170 54 23 23 26 59 12 105-3 9-6 18-10 27-9-26-28-38-54-38l-5 0-4 2c-40 23-46 60-26 95 9 19 6 33-7 53-1 2-5 7-7 10-5 4-8 8-14 13-1 0-1 0-1 1-15 12-25 21-37 35-3-16-9-28-19-41-3-5-18-21-19-23-20-23-22-36-18-66 1-11 1-15 1-21 2-23-6-41-19-53-8-8-16-11-22-13l-5-1c-21 0-34 12-42 31-9-24-9-48-2-72 4-13 10-25 16-34z m-25-27c-1 2-3 3-5 5-3 3-6 8-10 13-8 12-16 27-20 44-14 48-6 99 32 146l35 43-3-55c0 0 0 0 0-1 0-8 1-18 3-27 2-11 5-17 9-19 1 1 3 2 4 4 6 5 9 13 9 26 0 4-1 8-2 18-5 38 0 62 27 93 2 3 15 18 18 22 8 11 12 19 12 35l-2 85 33-41c30-37 42-49 64-68 1-1 1-1 1-1 7-6 12-10 17-16l2-2c0 0 7-9 9-12 19-29 25-57 9-90-11-18-10-32 7-44 16 2 23 15 17 57l-5 33 31-14c14-7 39-51 51-91 18-57 14-107-21-140-60-63-131-80-204-64-47 11-94 38-117 61 0 0 0 0-1 0z"/>
<glyph glyph-name="videojuegos" unicode="&#86;" d="M296 361l0-108c37-17 53-58 59-86l55 0 88-81-161 0 162 0 0-85-486-1 0 86 0 0 85 81 59 0c7 52 36 75 61 86l0 108c-25 14-42 40-42 70 0 45 36 81 81 81 21 0 42-8 57-24 15-15 23-35 23-57 0-30-17-56-41-70z m-21-8c0 0-1 0-2 0-4-2-9-3-15-3-3 0-7 1-10 1-3 1-6 1-9 2l1-94c5 1 8 2 11 2 2 0 4 0 6 0 2 0 3 0 5 0 5 0 9-1 13-2z m83-210c1-3 1-4 1-4l0-4-3-1c-38-15-73-20-102-20-57 0-94 19-97 20l-2 2 0 2c0 2 0 4 0 6l-39 0-55-48 390 1-52 46z m-302-88l0-24 395 2 0 21z m266 106c-11 66-67 63-67 63-12 0-62-11-64-70 0 0 25-8 66-8 38 0 67 6 65 15z m-65 317c-39 0-47-8-47-47 0-38 8-46 47-46 38 0 46 8 46 46 0 39-8 47-46 47z"/>
<glyph glyph-name="list-add" unicode="&#117;" d="M489 128l-303 0c-14 0-23-9-23-23 0-14 9-24 23-24l303 0c14 0 23 10 23 24 0 14-9 23-23 23z m0 93l-256 0c-14 0-24-9-24-23 0-14 10-23 24-23l256 0c14 0 23 9 23 23 0 14-9 23-23 23z m0 116l-256 0c-14 0-24-9-24-23 0-14 10-23 24-23l256 0c14 0 23 9 23 23 0 14-9 23-23 23z m-303 47l303 0c14 0 23 9 23 23 0 14-9 24-23 24l-303 0c-14 0-23-10-23-24 0-14 9-23 23-23z m-23-163c14 0 23 9 23 23 0 14-9 24-23 24l-47 0 0 46c0 14-9 23-23 23-14 0-23-9-23-23l0-46-47 0c-14 0-23-10-23-24 0-14 9-23 23-23l47 0 0-46c0-14 9-24 23-24 14 0 23 10 23 24l0 46z"/>
<glyph glyph-name="list-arrow-add" unicode="&#87;" d="M494 108l-226 0c-10 0-18 8-18 17 0 10 8 17 18 18l226 0c7 0 12-4 16-9 3-5 3-12 0-18-4-5-9-8-16-8z m0 87l-192 0c-6 0-12 3-15 9-3 5-3 12 0 17 3 6 9 9 15 9l192 0c7 0 12-3 16-9 3-5 3-12 0-17-4-6-9-9-16-9z m0 87l-192 0c-6 0-12 3-15 9-3 5-3 12 0 17 3 6 9 9 15 9l192 0c7 0 12-3 16-9 3-5 3-12 0-17-4-6-9-9-16-9z m0 87l-226 0c-10 1-18 8-18 18 0 9 8 17 18 17l226 0c7 0 12-3 16-8 3-6 3-13 0-18-4-5-9-9-16-9z m-312-174c-5 0-9 2-13 5l-82 82c-6 7-6 18 0 25 7 6 18 6 25 0l82-82c5-5 6-13 4-19-3-7-9-11-16-11z m-164 0c-7 0-14 4-16 11-3 6-2 14 3 19l82 82c7 6 18 6 25 0 7-7 7-18 0-25l-82-82c-3-3-8-5-12-5z"/>
<glyph glyph-name="hacha" unicode="&#88;" d="M510 185c0 3-2 6-5 6-21 6-39 20-49 40l-2 3 30 17c3 2 5 7 2 11 0 1-2 2-3 3l-35 13 1 3c5 24 21 45 43 55 3 1 5 4 4 7l-1 17c0 3-2 6-5 7-61 18-126 13-183-16-2-1-4-4-4-7l2-17c0-3 2-6 5-6 25-7 45-25 53-49l1-2-15-18c-1-2-2-4-2-6 1-2 2-4 3-5l16-13-1-2c-6-22-21-41-42-50-3-1-5-4-4-7l1-17c0-3 2-6 5-7 61-18 126-12 183 16 3 2 4 4 4 7z m-16-15c-30-14-64-21-97-21-20 0-40 2-60 7l-2 1-1 7 2 1c24 13 41 37 45 64 1 3 0 5-2 7l-13 12 12 14c2 2 3 5 2 7-8 30-30 54-58 64l-3 1 0 6 2 1c49 23 105 28 157 14l3-1 0-6-2-1c-26-15-44-43-46-73-1-3 1-6 5-8l25-10-22-12c-3-2-4-6-3-10 9-25 30-46 56-55l2-1 0-6z m-166 59l-160-13-2 30 161 14-2 15-291-25c-2 0-4-1-5-2l-27-25c-3-3-3-8 0-11 0 0 1-1 1-1l31-21c1-1 3-1 5-1l290 25z m-288-24l-20 13 18 17 113 10 2-31z"/>
<glyph glyph-name="crema" unicode="&#89;" d="M172 470l-33 33c-5 6-13 9-21 9-8 0-16-3-21-9l-87-87c-12-11-12-31 0-42l38-38 271-336 192 192z m-148-82c-2 1-3 4-3 7 0 2 1 5 3 7l87 87c2 2 4 3 7 3 3 0 5-1 7-3l26-26-101-101z m277-334l64 64-14 14-62-62-225 277 102 102 276-226-65-65 14-14 66 66 24-19-161-161z m-70 158z m82 83c27-27 27-70 0-97-26-27-70-27-96 0l14 14c17-17 45-19 64-3 20 15 24 43 10 63-13 21-40 28-62 17-22-11-32-37-23-60l-19-8c-12 30-1 65 26 83 28 17 63 14 86-9z"/>
<glyph glyph-name="impermeable" unicode="&#90;" d="M480 269c-3 5-61 105-118 120-14 4-29 2-41-5-58-35-90-21-133 3-51 29-144-102-155-117l-4-6 231-262 1-1 222 262 0 1z m-219-240l-209 237c66 91 113 113 127 105 47-27 86-43 152-3 7 5 17 6 26 4 43-12 90-83 103-106z m-85 391l1-1c21-17 50-38 75-38 26 0 66 19 81 35 4 3 7 9 7 14-1 18-50 81-84 81l-1 0c-18-1-39-21-50-33-13-13-24-28-31-45-2-4-1-10 2-13z m80 72l1 0c13 0 30-16 39-26 10-11 19-23 26-36-6-9-46-31-69-31-15 0-36 11-60 31 7 17 44 61 63 62z"/>
<glyph glyph-name="cinturon" unicode="&#48;" d="M58 238c10 0 18 8 18 18 0 10-8 18-18 18-10 0-18-8-18-18 0-10 8-18 18-18z m0 24c2 0 5-1 5-4 1-2 1-5-1-6-2-2-4-3-6-2-3 1-4 3-4 6 0 2 0 3 2 4 1 1 2 2 4 2z m63-24c10 0 18 8 18 18 0 10-8 18-18 18-10 0-18-8-18-18 0-10 8-18 18-18z m0 24c2 0 5-1 6-4 1-2 0-5-2-6-1-2-4-3-6-2-3 1-4 3-4 6 0 3 3 6 6 6z m385 57l-169 0c-2 8-9 13-17 13l-127 0c-8 0-15-5-17-13l-170 0c-2 0-3-1-4-2-2-1-2-3-2-4l0-114c0-3 3-6 6-6l170 0c2-8 9-13 17-13l127 0c8 0 15 5 17 13l169 0c3 0 6 3 6 6l0 114c0 1 0 3-2 4-1 1-2 2-4 2z m-331-114l-163 0 0 102 163 0z m151-8c-1-3-3-5-6-5l-127 0c-4 0-6 2-6 6l0 116c0 3 2 6 6 6l127 0c3 0 5-2 6-5-1-1-1-1-1-2l0-114c0-1 0-1 1-2z m174 8l-162 0 0 102 162 0z m-54 33c10 0 18 8 18 18 0 10-8 18-18 18-10 0-18-8-18-18 0-10 8-18 18-18z m-6 18c0 3 3 6 6 6 3 0 5-1 6-4 1-2 1-5-1-7-2-2-5-2-7-1-2 1-4 3-4 6z m-57-18c10 0 18 8 18 18 0 10-8 18-18 18-10 0-18-8-18-18 0-10 8-18 18-18z m0 24c3 0 5-2 6-4 1-2 1-5-1-7-2-2-5-2-7-1-3 1-4 3-4 6 0 1 1 3 2 4 1 1 2 2 4 2z"/>
<glyph glyph-name="comida" unicode="&#49;" d="M227 369c0-5-4-9-9-9-4 0-8 2-9 6-2 3-1 7 2 10 3 3 7 4 10 2 4-1 6-5 6-9z m-101 39z m124 0z m0 18c-5 0-9-4-9-9 0-5 4-9 9-9 5 0 9 4 9 9 1 2 0 5-2 7-2 1-4 2-7 2z m-124 0c-5 0-9-4-9-9 0-5 5-9 10-9 5 0 9 4 9 9 0 5-5 9-10 9z m30-47c-5-1-9-5-9-10 0-4 4-8 9-9 5 1 8 5 8 9 0 5-3 9-8 10z m32 47c-5 0-9-4-9-9 0-5 4-9 9-9 5 0 9 4 10 9 0 2-1 5-3 7-2 1-4 2-7 2z m0-18z m-94-30c-4 1-7-1-9-4-2-3-2-7 0-10 2-3 5-4 9-4 5 0 8 4 8 9 0 5-3 9-8 9z m-94-258l512 0 0-39c0-33-27-59-59-59l-394 0c-33 0-59 26-59 59z m18-39c0-11 4-22 12-29 8-8 18-12 29-12l394 0c22 0 41 18 41 41l0 21-476 0z m415 157c-9 4-18 6-28 5l0-18c23 0 39-21 77-4 6 3 14 4 21 4l0 19c-31 0-38-20-70-6z m-154 141c-5-1-9-5-9-10 0-4 4-8 9-9 4 1 8 5 8 9 0 5-4 9-8 10z m233-206l0-17c0-11-9-20-20-20l-472 0c-11 0-20 9-20 20l0 17c0 11 9 20 20 20l472 0c11 0 20-9 20-20z m-18 0c0 3-476 2-476 0l0-17c0-2 476-4 476 0z m-290 71c-26 0-27-11-49-11-22 0-22 11-49 11-27 0-27-11-49-11-22 0-22 11-49 11l0-19c7 0 14-1 21-4 18-8 38-8 56 0 40 17 49-21 98 0 40 17 49-21 97 0 7 3 15 4 22 4l0 19c-27 0-27-11-49-11-22 0-22 11-49 11z m170 191z m35-34c0-19-16-34-35-34-18 0-34 15-34 34 0 19 16 34 34 34 10 0 18-3 25-10 6-6 10-15 10-24z m-18 0c0 9-8 16-17 16-8 0-16-7-16-16 0-9 8-16 16-16 9 0 17 7 17 16z m121-97l-512 0c0 119 88 186 177 186l157 0c91 0 178-69 178-186z m-494 18l476 0c-5 84-75 150-159 150l-157 0c-85 0-155-66-160-150z m485-34l-73 0-75-60-74 60-272 0 0-18 265 0 81-65 81 65 67 0z"/>
<glyph glyph-name="documento" unicode="&#50;" d="M104 215c1 0 1 0 2 0 2-6 12-24 27-24 16 0 24 19 27 26 0-1 1-1 2-2 1 0 2 0 3 1 1 2 9 15 5 22-1 1-3 2-4 2l0 0c0 2 1 5 1 8 0 18-15 33-33 33-8 0-15-2-21-7l-1-1-1-1c-4-4-7-9-8-14-1-4-1-9-1-13 0-3 0-5 0-7-1 1-2 1-3 1-1 0-2 0-2-1-5-6 3-21 4-22 0-1 2-1 3-1z m155-54l177 0 0-13-177 0z m-61 12l-42 17c-15-5-31-5-47 0l-42-17c-5-2-8-7-8-13l0-27 148 0 0 27c0 6-3 11-9 13z m131 188l0 29-38 0 0 58-70 0 0-58-33 0 0-29-188 0 0-297 512 0 0 297z m-111-8l79 0 0-13-79 0z m280-275l-484 0 0 270 174 0 0-39 141 0 0 39 169 0z m-239 170l177 0 0-13-177 0z m0-43l177 0 0-14-177 0z"/>
<glyph glyph-name="embarazada" unicode="&#51;" d="M308 88l-1 0 3-32c0-2 0-5-2-7-2-2-5-3-7-3l-41 0-9-34c-1-2-2-5-5-6-4-2-10-1-13 4-1 2-1 4-1 7l11 41c1 4 5 7 9 7l38 0-3 30c0 5 4 9 9 10 36 5 63 35 63 71 0 39-25 81-72 82-8 0-9 3-14 22-2 8-5 19-8 33-6 24-12 48-12 49-1 2 0 5 1 7 1 2 3 3 6 4 2 1 5 0 7-1 2-1 4-3 4-6 8-33 19-74 23-89l0-1 1 0c41-4 83-39 83-100 0-42-29-78-70-88z m-115-23l-21 1 0 1 22 127c0 5-3 10-8 11l-2 0c-2 0-4-1-5-2-2-1-4-3-4-6l-24-138c-1-6 2-11 8-11l1 0 22-1 0-33c0-6 5-10 10-10 5 0 9 4 9 10l0 42c0 5-3 9-8 9z m-40 223l0 1c2 8 18 82 22 112 1 7 7 30 9 41l0 1c1 3 1 5 2 7 2 15 11 28 25 35 14 6 30 5 43-3 9-6 15-15 17-25 2-13 0-39-24-46-2-1-4-2-5-5-2-3-2-7 1-10 2-3 6-4 10-3 30 9 41 41 36 67-2 16-11 29-24 38-11 6-22 10-35 10-31 0-58-23-62-54l-2-8c-4-18-8-35-9-42-5-31-23-111-23-112 0-3 0-5 2-8 2-3 6-4 9-4 4 1 7 4 8 8z m49 71c-1 2-4 3-6 4l-2 0c-4 0-8-4-9-8l-19-115c-1-4 1-8 5-10l73-39c2-1 5-1 7 0 2 0 5 2 6 4 1 2 1 5 1 7-1 3-3 5-5 6l-67 35 18 109c0 2 0 5-2 7z"/>
<glyph glyph-name="gafas" unicode="&#52;" d="M495 237l-56 168c0 1-1 2-2 3l-24 24c-3 3-9 3-12 0-3-3-3-9 0-12l23-23 44-132-3 2c-47 31-111 18-142-30-4-6-7-12-10-18l-1-2-1 1c-21 31-62 39-93 18-7-5-13-11-18-18l-1-1 0 2c-21 53-81 79-134 58-6-3-12-6-18-10l-3-1 45 132 22 22c2 2 3 4 3 6 0 2-1 5-3 6-3 3-9 3-12 0l-24-24c-1-1-1-2-2-3l-56-168c-15-23-20-51-15-78 9-41 42-72 83-80 41-7 82 11 105 46 11 16 17 36 17 56 1 26 23 47 49 47 27 0 49-21 50-47 0-57 46-103 103-104 37 1 72 21 90 54 18 33 17 73-4 105z m-392-142c-48 0-86 38-86 86 0 47 39 85 86 85 48 0 86-38 86-85 0-48-38-86-86-86z m305 0c-47 0-85 38-85 86 0 47 38 85 86 85 47 0 86-38 86-85 0-48-39-86-86-86z m4 97l-39-40c-2-1-4-2-6-2-3 0-5 1-6 2-2 2-3 4-3 6 0 3 1 5 3 6l39 40c2 1 4 2 6 2 2 0 5-1 6-2 2-2 3-4 3-6 0-2-1-5-2-6z m10 22c-2 1-2 3-2 6 0 2 0 4 2 6l7 7c1 1 4 2 6 2 2 0 4-1 6-2 1-2 2-4 2-6 0-3 0-5-2-7l-7-6c-1-2-4-3-6-3-2 0-4 1-6 3z m35-37c1-1 2-4 2-6 0-2-1-4-2-6l-29-28c-1-2-4-3-6-3-2 0-4 1-6 3-1 1-2 3-2 6 0 2 1 4 2 6l29 28c1 2 3 3 6 3 2 0 4-1 6-3z m-346 21c0-2-1-5-2-6l-40-40c-3-3-8-3-12 0-3 4-3 9 0 13l39 39 1 0c1 1 3 2 6 2 2 0 4-1 6-2 1-2 2-4 2-6z m8 16c-2 1-3 4-3 6 0 2 1 5 3 6l6 7c2 2 4 3 6 3 3 0 5-1 7-3 1-2 2-4 2-6 0-2-1-5-2-6l-7-7c-2-2-4-3-6-3-3 0-5 1-6 3z m34-37c2-1 3-3 3-6 0-2-1-4-3-6l-28-28c-4-3-9-4-12 0-4 3-4 9 0 12l28 28c2 2 4 3 6 3 2 0 5-1 6-3z"/>
<glyph glyph-name="hongo" unicode="&#53;" d="M256 508c-107 0-226-76-226-177 2-55 48-99 103-98l49 0 0-2c-1-26-6-51-13-75-8-26-12-52-12-79 0-33 17-73 99-73 82 0 99 40 99 73 0 27-4 53-12 78-7 24-11 49-13 75l0 3 51 0c55 0 100 44 101 99 0 101-119 176-226 176z m79-431c0-22-8-53-79-53-70 0-78 31-78 53 1 25 5 49 12 73 8 26 12 53 13 80l0 3 106 0 0-2c2-28 6-55 14-81 7-23 11-48 12-73z m46 177l-250 0c-44 0-79 34-81 78 0 88 111 155 206 155 95 0 206-68 206-155-2-44-37-78-81-78z m32 96c2-3 1-6 0-8-1-3-3-4-6-5-5-2-11 1-13 6-16 45-78 81-138 81-6 0-10 4-10 10 0 6 4 10 10 10 70 0 139-41 157-94z"/>
<glyph glyph-name="paraguas" unicode="&#54;" d="M451 329c14 0 27 10 30 23 5 21-18 46-23 51-2 2-4 3-7 3-2 0-4-1-6-3-5-5-29-30-23-51 3-13 15-23 29-23z m0 53c7-8 13-19 12-25-1-6-6-9-12-9-5 0-10 3-11 9-2 6 4 17 11 25z m36-159c-30 99-119 168-222 172l0 23c0 5-4 9-9 9-5 0-9-4-9-9l0-23c-103-4-192-73-222-172-1-2 0-6 2-8 2-2 5-4 8-4l212 0 0-164c1-10-5-19-13-25-9-5-20-5-29 0-8 6-13 15-13 25l0 19c0 5-4 8-9 8-5 0-9-3-10-8l0-19c2-25 22-44 47-44 24 0 45 19 46 44l0 164 212 0c5 0 9 4 9 9 0 1 0 2 0 3z m-440 7c26 70 86 123 159 141-27-28-48-78-58-141z m298 0l-178 0c14 87 50 147 89 147 40 0 76-60 89-147z m19 0c-9 63-30 113-57 141 73-18 132-71 158-141z m-309 99c14 0 26 10 30 23 5 21-19 46-23 51-2 2-5 3-7 3-3 0-5-1-7-3-4-5-28-30-23-51 4-13 16-23 30-23z m0 54c7-9 13-20 12-26-2-5-6-9-12-9-5 0-10 3-11 9-2 6 4 17 11 26z m291 52c14-1 26 9 30 22 5 22-19 47-23 51-2 2-4 3-7 3-2 0-4-1-6-3-5-4-29-29-23-51 3-13 15-22 29-22z m0 53c7-9 13-20 12-26-2-5-7-9-12-8-5-1-10 3-12 8-1 6 5 17 12 26z m-155-53c14-1 26 9 30 22 5 22-18 47-23 51-2 2-4 3-7 3-2 0-4-1-6-3-5-4-29-29-23-51 3-13 15-23 29-22z m0 53c7-9 13-20 12-26-2-5-6-9-12-8-5-1-10 3-11 8-2 6 4 17 11 26z"/>
<glyph glyph-name="stick" unicode="&#55;" d="M421 496l-128 0 0 16-74 0 0-16-128 0c-10 0-18-8-18-19l0-156c0-10 8-18 18-18l129 0 0-19 23 0 0-284 26 0 0 284 23 0 0 19 129 0c10 0 18 8 18 18l0 156c0 11-8 19-18 19z m-197 11l63 0 0-11-63 0z m174-189l-280 0 0 162 280 0z m-91 30l-35 0 0 8 27 0 0 27 8 0z m-67 8l-27 0 0 27-8 0 0-35 35 0z m-27 86l27 0 0 8-35 0 0-35 8 0z m94 8l-35 0 0-8 27 0 0-27 8 0z"/>
<glyph glyph-name="vino" unicode="&#56;" d="M369 511l-226 0c-5 0-9-4-9-8l0-167c0-60 49-109 110-109l24 0c61 0 110 49 110 109l0 167c0 4-4 8-9 8z m-8-175c0-51-42-92-93-92l-24 0c-51 0-93 41-93 92l0 18c8-2 16-2 23-2 20 0 39 3 57 9 33 11 69 11 102 0 4-1 9 1 10 5 1 4 0 9-4 11-37 12-76 12-113 0-24-8-50-10-75-6l0 123 210 0z m-57-284l-39 0 0 149c-1 4-5 8-9 8-4 0-8-4-9-8l0-149-39 0c-10 0-20-4-27-12-8-7-12-17-12-27l0-4c0-2 1-4 3-6 1-1 4-2 6-2l156 0c5 0 9 4 9 8l0 4c0 21-18 39-39 39z m-117-34c2 10 11 17 21 17l96 0c10 0 19-7 21-17z"/>
</font>
</defs>
</svg>
