<?xml version="1.0" standalone="no"?>
<!DOCTYPE svg PUBLIC "-//W3C//DTD SVG 20010904//EN"
 "http://www.w3.org/TR/2001/REC-SVG-20010904/DTD/svg10.dtd">
<svg version="1.0" xmlns="http://www.w3.org/2000/svg"
 width="420.000000pt" height="420.000000pt" viewBox="0 0 420.000000 420.000000"
 preserveAspectRatio="xMidYMid meet">
<metadata>
Created by potrace 1.11, written by Peter Selinger 2001-2013
</metadata>
<g transform="translate(0.000000,420.000000) scale(0.100000,-0.100000)"
fill="#000000" stroke="none">
<path d="M1905 3883 c-365 -39 -658 -152 -931 -360 -150 -115 -286 -259 -395
-422 -188 -280 -289 -584 -306 -921 -3 -63 -7 -117 -9 -119 -2 -2 -61 -22
-131 -46 -142 -46 -134 -37 -121 -135 8 -56 55 -356 68 -430 5 -30 17 -102 26
-160 18 -121 22 -148 28 -175 3 -18 12 -72 21 -135 2 -14 9 -54 14 -90 6 -36
11 -68 11 -72 0 -4 39 7 88 23 48 17 92 32 97 33 6 1 77 24 159 51 135 44 150
46 161 32 7 -9 24 -94 39 -189 16 -95 29 -178 31 -185 3 -9 22 -7 74 7 39 11
75 20 80 20 4 0 16 -27 25 -60 l17 -59 100 35 100 35 97 -49 c128 -64 239
-106 364 -138 128 -32 110 -29 268 -49 58 -8 260 -8 345 0 276 24 585 135 820
294 179 120 292 229 458 441 28 36 107 160 101 160 -3 0 3 12 14 27 60 85 157
347 187 503 10 54 26 163 29 205 2 28 5 53 5 56 1 4 82 32 181 64 l179 59 -5
34 c-3 19 -8 44 -10 56 -2 11 -11 62 -19 111 -9 50 -31 173 -50 275 -18 102
-37 205 -40 230 -4 24 -8 47 -11 51 -2 4 -6 31 -10 60 -3 30 -8 56 -10 59 -2
5 -14 72 -40 225 -3 16 -6 30 -7 31 -1 1 -20 -4 -42 -11 -214 -70 -418 -135
-424 -135 -4 0 -38 39 -76 87 -68 87 -77 108 -90 208 -3 27 -11 53 -18 57 -25
16 -178 58 -188 53 -5 -4 -59 25 -119 65 -306 199 -637 299 -985 297 -66 0
-133 -2 -150 -4z"/>
</g>
</svg>
