<svg xmlns="http://www.w3.org/2000/svg" xmlns:xlink="http://www.w3.org/1999/xlink" width="104.999" height="103.24" viewBox="0 0 104.999 103.24">
  <defs>
    <clipPath id="clip-path">
      <path id="Trazado_40" data-name="Trazado 40" d="M841.869-468.184l55.121,73.759-78.624.058Z" transform="translate(-818.366 468.184)" fill="none"/>
    </clipPath>
  </defs>
  <g id="blue-triangle" transform="translate(-905.909 -3.724) rotate(30)">
    <path id="Trazado_10" data-name="Trazado 10" d="M841.869-468.184l55.121,73.759-78.624.058Z" transform="translate(0 0)" fill="#36ffee"/>
    <g id="Grupo_56" data-name="Grupo 56" transform="translate(818.366 -468.183)">
      <g id="Grupo_55" data-name="Grupo 55" transform="translate(0 0)" clip-path="url(#clip-path)">
        <g id="Grupo_54" data-name="Grupo 54" transform="translate(-12.787 1.643)">
          <path id="Trazado_11" data-name="Trazado 11" d="M862.836-397.391s6.04-3.235,10.762-.133a37.787,37.787,0,0,1,5.184,4.108s-5.453,2-8.831.593A31.889,31.889,0,0,1,862.836-397.391Z" transform="translate(-838.3 415.539)" fill="#fff"/>
          <path id="Trazado_12" data-name="Trazado 12" d="M842.65-371.426s4.974,4.694,3.509,10.171a38.825,38.825,0,0,1-2.238,6.212s-3.612-4.549-3.385-8.2A31.955,31.955,0,0,1,842.65-371.426Z" transform="translate(-821.883 395.346)" fill="#fff"/>
          <path id="Trazado_13" data-name="Trazado 13" d="M893.057-351.132s6.253,2.764,6.7,8.407a37.3,37.3,0,0,1-.058,6.608s-4.911-3.079-5.9-6.6A32.829,32.829,0,0,1,893.057-351.132Z" transform="translate(-860.52 380.414)" fill="#fff"/>
          <path id="Trazado_14" data-name="Trazado 14" d="M923.212-357.843s5.7-3.781,10.7-1.1a38.454,38.454,0,0,1,5.541,3.6s-5.263,2.479-8.768,1.411A32.786,32.786,0,0,1,923.212-357.843Z" transform="translate(-882.725 386.868)" fill="#fff"/>
          <path id="Trazado_15" data-name="Trazado 15" d="M954.728-316.087s5.749,3.731,5.293,9.375a38.749,38.749,0,0,1-1.129,6.525s-4.366-3.835-4.768-7.465A32.568,32.568,0,0,1,954.728-316.087Z" transform="translate(-905.401 354.628)" fill="#fff"/>
          <path id="Trazado_16" data-name="Trazado 16" d="M871.806-291.648s6.818.519,9.108,5.7a38.659,38.659,0,0,1,2.146,6.25s-5.665-1.255-7.766-4.273A32.759,32.759,0,0,1,871.806-291.648Z" transform="translate(-844.9 336.645)" fill="#fff"/>
          <path id="Trazado_17" data-name="Trazado 17" d="M835.633-357.285s6.818.541,9.108,5.72a38.58,38.58,0,0,1,2.144,6.249s-5.665-1.274-7.764-4.273A31.75,31.75,0,0,1,835.633-357.285Z" transform="translate(-818.284 384.941)" fill="#fff"/>
          <path id="Trazado_18" data-name="Trazado 18" d="M934.858-260.964s5.435,4.17,4.538,9.771a38.358,38.358,0,0,1-1.632,6.4s-4.05-4.151-4.158-7.822A32.028,32.028,0,0,1,934.858-260.964Z" transform="translate(-890.366 314.068)" fill="#fff"/>
          <path id="Trazado_19" data-name="Trazado 19" d="M827.336-284.085s2.061,6.522-1.859,10.6a38.671,38.671,0,0,1-4.989,4.323s-.949-5.726,1.042-8.789A32.415,32.415,0,0,1,827.336-284.085Z" transform="translate(-806.973 331.081)" fill="#fff"/>
          <path id="Trazado_20" data-name="Trazado 20" d="M788.714-341.607s6.609,1.821,7.872,7.336a38.716,38.716,0,0,1,.907,6.566s-5.308-2.325-6.8-5.681A32.313,32.313,0,0,1,788.714-341.607Z" transform="translate(-783.761 373.405)" fill="#fff"/>
          <path id="Trazado_21" data-name="Trazado 21" d="M812.064-429.849s4.22,5.389,1.98,10.572a38.9,38.9,0,0,1-3.164,5.813s-2.9-5.031-2.1-8.6A32.358,32.358,0,0,1,812.064-429.849Z" transform="translate(-798.421 438.334)" fill="#fff"/>
          <path id="Trazado_22" data-name="Trazado 22" d="M861.452-233.679s5.646,3.856,5.061,9.478a40.3,40.3,0,0,1-1.254,6.505s-4.282-3.921-4.6-7.571A31.578,31.578,0,0,1,861.452-233.679Z" transform="translate(-836.653 293.992)" fill="#fff"/>
          <path id="Trazado_23" data-name="Trazado 23" d="M813.671-208.407s.991,6.753-3.558,10.135a37.338,37.338,0,0,1-5.619,3.465s-.026-5.789,2.449-8.5A32.272,32.272,0,0,1,813.671-208.407Z" transform="translate(-795.371 275.396)" fill="#fff"/>
          <path id="Trazado_24" data-name="Trazado 24" d="M771.786-270.138s5.144,4.526,3.867,10.046a39.3,39.3,0,0,1-2.03,6.274s-3.78-4.4-3.655-8.074A32.174,32.174,0,0,1,771.786-270.138Z" transform="translate(-769.965 320.818)" fill="#fff"/>
          <path id="Trazado_25" data-name="Trazado 25" d="M838.562-156.557s6.776.854,8.835,6.118a37.892,37.892,0,0,1,1.85,6.355s-5.6-1.527-7.554-4.63A31.914,31.914,0,0,1,838.562-156.557Z" transform="translate(-820.439 237.245)" fill="#fff"/>
          <path id="Trazado_26" data-name="Trazado 26" d="M920.539-123.128s3.561-5.834,9.2-5.523a39.283,39.283,0,0,1,6.546.919s-3.689,4.471-7.319,4.976A32.217,32.217,0,0,1,920.539-123.128Z" transform="translate(-880.758 216.72)" fill="#fff"/>
          <path id="Trazado_27" data-name="Trazado 27" d="M1021.988-167.247s-.194-6.839,4.734-9.674a38.347,38.347,0,0,1,6-2.754s-.688,5.749-3.455,8.142A32.532,32.532,0,0,1,1021.988-167.247Z" transform="translate(-955.404 254.255)" fill="#fff"/>
          <path id="Trazado_28" data-name="Trazado 28" d="M1078.8-283.628s-5.4-4.213-4.435-9.792a38.313,38.313,0,0,1,1.675-6.4s4.009,4.192,4.1,7.863A32.267,32.267,0,0,1,1078.8-283.628Z" transform="translate(-993.861 342.658)" fill="#fff"/>
          <path id="Trazado_29" data-name="Trazado 29" d="M1051.319-378.6s-6.818-.478-9.172-5.636a39.691,39.691,0,0,1-2.166-6.228s5.666,1.212,7.788,4.211A31.9,31.9,0,0,1,1051.319-378.6Z" transform="translate(-968.644 409.354)" fill="#fff"/>
          <path id="Trazado_30" data-name="Trazado 30" d="M905.06-219.9s4.283,5.348,2.085,10.571a38.706,38.706,0,0,1-3.1,5.835s-2.962-5.012-2.187-8.578A32.409,32.409,0,0,1,905.06-219.9Z" transform="translate(-866.916 283.854)" fill="#fff"/>
          <path id="Trazado_31" data-name="Trazado 31" d="M878.112-461.966s6.735,1.17,8.543,6.517a38.365,38.365,0,0,1,1.536,6.439s-5.52-1.8-7.326-4.987A31.865,31.865,0,0,1,878.112-461.966Z" transform="translate(-849.54 461.966)" fill="#fff"/>
          <path id="Trazado_32" data-name="Trazado 32" d="M975.066-235.745s6.695,1.359,8.355,6.769a39.032,39.032,0,0,1,1.347,6.482s-5.455-1.946-7.178-5.2A31.657,31.657,0,0,1,975.066-235.745Z" transform="translate(-920.879 295.512)" fill="#fff"/>
          <path id="Trazado_33" data-name="Trazado 33" d="M1063.545-201.352s6.714,1.359,8.355,6.771a40.072,40.072,0,0,1,1.369,6.461s-5.477-1.949-7.2-5.178A32.813,32.813,0,0,1,1063.545-201.352Z" transform="translate(-985.982 270.205)" fill="#fff"/>
          <path id="Trazado_34" data-name="Trazado 34" d="M941.686-176.8s6.333-2.563,10.7,1.04a39.625,39.625,0,0,1,4.7,4.654s-5.642,1.39-8.853-.371A31.69,31.69,0,0,1,941.686-176.8Z" transform="translate(-896.318 252.792)" fill="#fff"/>
          <path id="Trazado_35" data-name="Trazado 35" d="M1016.1-291.78s-.6,6.819-5.783,9.067a40.1,40.1,0,0,1-6.271,2.082s1.317-5.644,4.336-7.724A32.7,32.7,0,0,1,1016.1-291.78Z" transform="translate(-942.2 336.743)" fill="#fff"/>
          <path id="Trazado_36" data-name="Trazado 36" d="M1035.682-235.527s-5.6,3.948-10.656,1.434a38.545,38.545,0,0,1-5.645-3.435s5.158-2.648,8.683-1.665A32.136,32.136,0,0,1,1035.682-235.527Z" transform="translate(-953.486 298.209)" fill="#fff"/>
          <path id="Trazado_37" data-name="Trazado 37" d="M989.565-406.111s-3.529-5.872-.637-10.74a39.646,39.646,0,0,1,3.875-5.354s2.249,5.349.993,8.789A32.065,32.065,0,0,1,989.565-406.111Z" transform="translate(-930.241 432.71)" fill="#fff"/>
          <path id="Trazado_38" data-name="Trazado 38" d="M938.377-432.079s-5.373-4.256-4.37-9.816a37.449,37.449,0,0,1,1.716-6.377s3.988,4.211,4.055,7.883A32.847,32.847,0,0,1,938.377-432.079Z" transform="translate(-890.576 451.889)" fill="#fff"/>
          <path id="Trazado_39" data-name="Trazado 39" d="M1004.834-332.94s-4.024,5.519-9.646,4.791a40.391,40.391,0,0,1-6.441-1.443s4.046-4.179,7.7-4.39A32.519,32.519,0,0,1,1004.834-332.94Z" transform="translate(-930.946 367.813)" fill="#fff"/>
        </g>
      </g>
    </g>
  </g>
</svg>
