<svg xmlns="http://www.w3.org/2000/svg" width="284.608" height="48.338" viewBox="0 0 284.608 48.338">
  <g id="Grupo_4586" data-name="Grupo 4586" transform="translate(-209.734 -395.052)">
    <g id="Grupo_4585" data-name="Grupo 4585" transform="translate(209.734 395.052)">
      <g id="Grupo_4584" data-name="Grupo 4584" transform="translate(139.934 9.388)">
        <path id="Trazado_3287" data-name="Trazado 3287" d="M815,510.649V494.91c0-3.529-2.25-4.749-4.286-4.749-2.009,0-4.35,1.219-4.35,4.61v15.878h-6.481V494.91c0-3.529-2.257-4.749-4.3-4.749s-4.339,1.219-4.339,4.749v15.74h-6.492V484.624h6.336v2.4a9.129,9.129,0,0,1,6.492-2.7,8.1,8.1,0,0,1,6.893,3.287,9.928,9.928,0,0,1,7.782-3.287,9.132,9.132,0,0,1,6.4,2.291,9.823,9.823,0,0,1,2.848,7.4v16.628Z" transform="translate(-784.753 -471.989)" fill="#4609a9"/>
        <path id="Trazado_3288" data-name="Trazado 3288" d="M970.534,472.289v-2.4a8.893,8.893,0,0,1-6.5,2.692,8.432,8.432,0,0,1-6.145-2.305c-2.1-2.1-2.646-4.534-2.646-7.375V446.263h6.49V462c0,3.543,2.257,4.744,4.3,4.744s4.35-1.2,4.35-4.744V446.263h6.485v26.026Zm-2.9-30.167h-4.343l3.2-8.493h6.84Z" transform="translate(-913.753 -433.629)" fill="#4609a9"/>
        <path id="Trazado_3289" data-name="Trazado 3289" d="M1066.475,510.939c-4.088,0-7.789-.451-11.093-3.741l4.251-4.249a9.412,9.412,0,0,0,6.945,2.45c2.245,0,4.585-.743,4.585-2.689,0-1.311-.686-2.206-2.745-2.407l-4.088-.4c-4.7-.444-7.592-2.5-7.592-7.295,0-5.39,4.741-8.284,10.033-8.284,4.044,0,7.447.7,9.938,3.037l-4,4.051c-1.5-1.351-3.8-1.746-6.039-1.746-2.6,0-3.7,1.2-3.7,2.5,0,.95.405,2.045,2.7,2.243l4.1.4c5.142.5,7.744,3.255,7.744,7.645,0,5.751-4.9,8.484-11.038,8.484" transform="translate(-989.523 -471.989)" fill="#4609a9"/>
        <path id="Trazado_3290" data-name="Trazado 3290" d="M1160.267,445.549h6.644v5.3h-6.644Zm.113,9.733h6.478v26.026h-6.478Z" transform="translate(-1068.884 -442.648)" fill="#4609a9"/>
        <path id="Trazado_3291" data-name="Trazado 3291" d="M1215.2,510.939c-5.194,0-11.634-2.8-11.634-13.325s6.439-13.288,11.634-13.288a11.035,11.035,0,0,1,8.59,3.508l-4.39,4.38a5.273,5.273,0,0,0-4.2-2.054,4.509,4.509,0,0,0-3.692,1.7c-.994,1.254-1.449,3-1.449,5.749s.456,4.541,1.449,5.79a4.5,4.5,0,0,0,3.692,1.7,5.261,5.261,0,0,0,4.2-2.05l4.39,4.336a11.089,11.089,0,0,1-8.59,3.547" transform="translate(-1101.644 -471.989)" fill="#4609a9"/>
        <path id="Trazado_3292" data-name="Trazado 3292" d="M1305.966,510.649V508.4a7.941,7.941,0,0,1-6.4,2.508c-2.952,0-5.094-.759-6.646-2.305a8.378,8.378,0,0,1-2.149-5.85c0-4.139,2.85-7.539,8.891-7.539h6.147v-1.286c0-2.848-1.408-4.1-4.845-4.1a5.553,5.553,0,0,0-4.994,2.158l-4.148-4.051c2.547-2.8,5.045-3.6,9.391-3.6,7.3,0,11.091,3.092,11.091,9.188v17.134Zm-.156-11h-5.144c-2.349,0-3.655,1.107-3.655,2.949,0,1.8,1.208,3,3.747,3,1.8,0,2.959-.145,4.1-1.245.69-.653.95-1.7.95-3.3Z" transform="translate(-1167.629 -471.989)" fill="#4609a9"/>
      </g>
      <path id="Trazado_3293" data-name="Trazado 3293" d="M666.578,427.505l15.321-15.34-4.034-4.032-15.323,15.331Z" transform="translate(-552.349 -404.95)" fill="#4609a9"/>
      <rect id="Rectángulo_2276" data-name="Rectángulo 2276" width="5.671" height="16.441" transform="translate(97.816)" fill="#4609a9"/>
      <rect id="Rectángulo_2277" data-name="Rectángulo 2277" width="16.778" height="5.69" transform="translate(117.043 28.905)" fill="#4609a9"/>
      <path id="Trazado_3294" data-name="Trazado 3294" d="M584.167,502.021a6.858,6.858,0,0,1-9.82,0,7,7,0,0,1-2.082-4.954,6.843,6.843,0,0,1,2.082-5.012,6.263,6.263,0,0,1,4.878-2.015,6.537,6.537,0,0,1,5.005,2.015,7.084,7.084,0,0,1-.063,9.966m4.456-14.417a12.829,12.829,0,0,0-9.4-3.921,12.5,12.5,0,0,0-9.283,3.921,12.9,12.9,0,0,0-3.892,9.463,13.418,13.418,0,0,0,13.174,13.384,13.338,13.338,0,0,0,13.245-13.384,13.128,13.128,0,0,0-3.847-9.463" transform="translate(-479.34 -462.114)" fill="#4609a9"/>
      <path id="Trazado_3295" data-name="Trazado 3295" d="M226.086,456.786a15.054,15.054,0,0,0-11.531,4.844,15.837,15.837,0,0,0-4.821,11.675,16.071,16.071,0,0,0,4.821,11.722,15.64,15.64,0,0,0,11.531,4.772,15.905,15.905,0,0,0,9.94-3.368,16.54,16.54,0,0,0,5.743-8.734h-6.655a11.274,11.274,0,0,1-3.6,4.208,10.06,10.06,0,0,1-5.431,1.586,9.792,9.792,0,0,1-7.145-2.986,10.354,10.354,0,0,1,0-14.415,9.863,9.863,0,0,1,12.576-1.334,10.731,10.731,0,0,1,3.6,4.2h6.655a16.352,16.352,0,0,0-5.743-8.731,15.333,15.333,0,0,0-9.94-3.442" transform="translate(-209.734 -441.762)" fill="#4609a9"/>
      <path id="Trazado_3296" data-name="Trazado 3296" d="M410.014,497.783l1.217-.666v2.558c0,2.2-.606,3.722-1.767,4.592a6.737,6.737,0,0,1-3.968,1.279,3.519,3.519,0,0,1-2.267-.729,3.67,3.67,0,0,1,.615-5.387,8.62,8.62,0,0,1,2.994-.855Zm-2.681-14.364c-4.271-.057-7.266,1.1-8.977,3.374a10.088,10.088,0,0,0-1.824,5.567h6.339a4.234,4.234,0,0,1,.92-2.333,3.841,3.841,0,0,1,3.364-1.236,5.776,5.776,0,0,1,3.1.623,2.3,2.3,0,0,1,1.1,2.131A2.1,2.1,0,0,1,409.9,493.5l-4.9.8a15.166,15.166,0,0,0-5.482,1.652c-2.388,1.406-3.544,3.669-3.478,6.918a6.841,6.841,0,0,0,2.131,5.438,8.26,8.26,0,0,0,5.19,1.765c3.472-.064,6.212-.916,8.169-2.63v2.63h6.35v-18.7c0-3.06-1.1-5.194-3.179-6.292a14.836,14.836,0,0,0-7.374-1.656" transform="translate(-350.703 -461.911)" fill="#4609a9"/>
      <rect id="Rectángulo_2278" data-name="Rectángulo 2278" width="6.354" height="33.133" transform="translate(35.265 15.024)" fill="#4609a9"/>
      <path id="Trazado_3297" data-name="Trazado 3297" d="M513.9,484.742a10.185,10.185,0,0,0-4.511,3.6v-3.234l-6.038-.045v25.409h6.286V498.316a9.07,9.07,0,0,1,.789-4.46,6.041,6.041,0,0,1,2.2-2.454,6.167,6.167,0,0,1,3.48-1.1l1.953.129L518,483.945l-1.644.136Z" transform="translate(-431.896 -462.313)" fill="#4609a9"/>
    </g>
  </g>
</svg>
