<svg xmlns="http://www.w3.org/2000/svg" xmlns:xlink="http://www.w3.org/1999/xlink" width="110.665" height="76.166" viewBox="0 0 110.665 76.166">
  <defs>
    <clipPath id="clip-path">
      <path id="Trazado_40" data-name="Trazado 40" d="M834.471-468.183l37.771,50.542-53.876.04Z" transform="translate(-818.366 468.183)" fill="none"/>
    </clipPath>
  </defs>
  <g id="Grupo_58" data-name="Grupo 58" transform="translate(-148.147 -353.428)">
    <g id="Grupo_57" data-name="Grupo 57" transform="translate(204.936 379.012)">
      <path id="Trazado_10" data-name="Trazado 10" d="M834.471-468.183l37.771,50.542-53.876.04Z" transform="translate(-818.366 468.183)" fill="#36ffee"/>
      <g id="Grupo_56" data-name="Grupo 56" transform="translate(0 0)">
        <g id="Grupo_55" data-name="Grupo 55" transform="translate(0 0)" clip-path="url(#clip-path)">
          <g id="Grupo_54" data-name="Grupo 54" transform="translate(-8.762 1.126)">
            <path id="Trazado_11" data-name="Trazado 11" d="M862.836-397.857s4.139-2.217,7.374-.091a25.883,25.883,0,0,1,3.552,2.815s-3.736,1.369-6.051.406A21.856,21.856,0,0,1,862.836-397.857Z" transform="translate(-846.023 410.292)" fill="#fff"/>
            <path id="Trazado_12" data-name="Trazado 12" d="M841.981-371.426s3.408,3.217,2.4,6.969a26.59,26.59,0,0,1-1.533,4.257s-2.475-3.117-2.32-5.62A21.9,21.9,0,0,1,841.981-371.426Z" transform="translate(-827.751 387.817)" fill="#fff"/>
            <path id="Trazado_13" data-name="Trazado 13" d="M893.05-351.132s4.284,1.894,4.589,5.761a25.58,25.58,0,0,1-.039,4.528s-3.365-2.11-4.043-4.525A22.507,22.507,0,0,1,893.05-351.132Z" transform="translate(-870.754 371.197)" fill="#fff"/>
            <path id="Trazado_14" data-name="Trazado 14" d="M923.212-358.492s3.909-2.591,7.331-.753a26.352,26.352,0,0,1,3.8,2.47s-3.606,1.7-6.008.967A22.464,22.464,0,0,1,923.212-358.492Z" transform="translate(-895.469 378.38)" fill="#fff"/>
            <path id="Trazado_15" data-name="Trazado 15" d="M954.508-316.087s3.939,2.557,3.627,6.424a26.576,26.576,0,0,1-.774,4.471s-2.992-2.628-3.267-5.116A22.317,22.317,0,0,1,954.508-316.087Z" transform="translate(-920.707 342.496)" fill="#fff"/>
            <path id="Trazado_16" data-name="Trazado 16" d="M871.806-291.648s4.672.356,6.241,3.906a26.492,26.492,0,0,1,1.471,4.282s-3.882-.86-5.322-2.928A22.452,22.452,0,0,1,871.806-291.648Z" transform="translate(-853.369 322.482)" fill="#fff"/>
            <path id="Trazado_17" data-name="Trazado 17" d="M835.633-357.285s4.672.37,6.241,3.919a26.449,26.449,0,0,1,1.469,4.282s-3.882-.873-5.321-2.928A21.77,21.77,0,0,1,835.633-357.285Z" transform="translate(-823.745 376.236)" fill="#fff"/>
            <path id="Trazado_18" data-name="Trazado 18" d="M934.461-260.964s3.725,2.857,3.109,6.7a26.265,26.265,0,0,1-1.118,4.386s-2.775-2.845-2.849-5.36A21.951,21.951,0,0,1,934.461-260.964Z" transform="translate(-903.973 297.352)" fill="#fff"/>
            <path id="Trazado_19" data-name="Trazado 19" d="M825.109-284.085s1.412,4.469-1.274,7.261a26.471,26.471,0,0,1-3.418,2.962s-.651-3.923.714-6.022A22.212,22.212,0,0,1,825.109-284.085Z" transform="translate(-811.156 316.288)" fill="#fff"/>
            <path id="Trazado_20" data-name="Trazado 20" d="M788.714-341.607s4.528,1.248,5.394,5.027a26.565,26.565,0,0,1,.622,4.5s-3.637-1.593-4.66-3.893A22.14,22.14,0,0,1,788.714-341.607Z" transform="translate(-785.32 363.396)" fill="#fff"/>
            <path id="Trazado_21" data-name="Trazado 21" d="M810.986-429.849s2.892,3.692,1.356,7.244a26.658,26.658,0,0,1-2.168,3.983s-1.985-3.447-1.441-5.893A22.16,22.16,0,0,1,810.986-429.849Z" transform="translate(-801.637 435.663)" fill="#fff"/>
            <path id="Trazado_22" data-name="Trazado 22" d="M861.183-233.679s3.869,2.642,3.469,6.495a27.652,27.652,0,0,1-.859,4.458s-2.934-2.687-3.151-5.188A21.625,21.625,0,0,1,861.183-233.679Z" transform="translate(-844.19 275.007)" fill="#fff"/>
            <path id="Trazado_23" data-name="Trazado 23" d="M810.783-208.407s.679,4.627-2.439,6.945a25.585,25.585,0,0,1-3.85,2.374s-.018-3.967,1.678-5.823A22.112,22.112,0,0,1,810.783-208.407Z" transform="translate(-798.243 254.31)" fill="#fff"/>
            <path id="Trazado_24" data-name="Trazado 24" d="M771.212-270.138s3.524,3.1,2.65,6.884a26.9,26.9,0,0,1-1.39,4.3s-2.59-3.017-2.505-5.533A22.062,22.062,0,0,1,771.212-270.138Z" transform="translate(-769.965 304.866)" fill="#fff"/>
            <path id="Trazado_25" data-name="Trazado 25" d="M838.562-156.557s4.643.585,6.054,4.192a25.933,25.933,0,0,1,1.268,4.354s-3.838-1.047-5.176-3.173A21.873,21.873,0,0,1,838.562-156.557Z" transform="translate(-826.143 211.847)" fill="#fff"/>
            <path id="Trazado_26" data-name="Trazado 26" d="M920.539-124.87s2.44-4,6.307-3.785a26.918,26.918,0,0,1,4.486.63s-2.528,3.064-5.015,3.41A22.078,22.078,0,0,1,920.539-124.87Z" transform="translate(-893.28 189.002)" fill="#fff"/>
            <path id="Trazado_27" data-name="Trazado 27" d="M1021.988-171.159s-.133-4.686,3.244-6.629a26.274,26.274,0,0,1,4.11-1.887s-.471,3.939-2.367,5.579A22.294,22.294,0,0,1,1021.988-171.159Z" transform="translate(-976.362 230.78)" fill="#fff"/>
            <path id="Trazado_28" data-name="Trazado 28" d="M1077.37-288.724s-3.7-2.887-3.039-6.71a26.236,26.236,0,0,1,1.148-4.386s2.747,2.873,2.807,5.388A22.112,22.112,0,0,1,1077.37-288.724Z" transform="translate(-1019.165 329.174)" fill="#fff"/>
            <path id="Trazado_29" data-name="Trazado 29" d="M1047.75-382.333s-4.672-.328-6.285-3.862a27.231,27.231,0,0,1-1.484-4.268s3.882.83,5.336,2.885A21.869,21.869,0,0,1,1047.75-382.333Z" transform="translate(-991.098 403.408)" fill="#fff"/>
            <path id="Trazado_30" data-name="Trazado 30" d="M904.011-219.9s2.935,3.664,1.429,7.244a26.5,26.5,0,0,1-2.125,4s-2.029-3.434-1.5-5.878A22.2,22.2,0,0,1,904.011-219.9Z" transform="translate(-877.873 263.724)" fill="#fff"/>
            <path id="Trazado_31" data-name="Trazado 31" d="M878.112-461.966s4.615.8,5.854,4.466a26.278,26.278,0,0,1,1.053,4.412s-3.782-1.234-5.02-3.417A21.837,21.837,0,0,1,878.112-461.966Z" transform="translate(-858.533 461.966)" fill="#fff"/>
            <path id="Trazado_32" data-name="Trazado 32" d="M975.066-235.745s4.587.931,5.725,4.638a26.8,26.8,0,0,1,.923,4.441s-3.738-1.334-4.919-3.561A21.709,21.709,0,0,1,975.066-235.745Z" transform="translate(-937.935 276.699)" fill="#fff"/>
            <path id="Trazado_33" data-name="Trazado 33" d="M1063.545-201.352s4.6.931,5.725,4.64a27.485,27.485,0,0,1,.938,4.427s-3.753-1.335-4.934-3.548A22.469,22.469,0,0,1,1063.545-201.352Z" transform="translate(-1010.396 248.532)" fill="#fff"/>
            <path id="Trazado_34" data-name="Trazado 34" d="M941.686-177.082s4.34-1.756,7.332.713a27.159,27.159,0,0,1,3.222,3.189s-3.866.952-6.066-.254A21.72,21.72,0,0,1,941.686-177.082Z" transform="translate(-910.598 229.152)" fill="#fff"/>
            <path id="Trazado_35" data-name="Trazado 35" d="M1012.3-291.78s-.413,4.672-3.962,6.213a27.481,27.481,0,0,1-4.3,1.427s.9-3.867,2.971-5.292A22.413,22.413,0,0,1,1012.3-291.78Z" transform="translate(-961.665 322.59)" fill="#fff"/>
            <path id="Trazado_36" data-name="Trazado 36" d="M1030.551-236.749s-3.837,2.705-7.3.983a26.4,26.4,0,0,1-3.868-2.354s3.534-1.815,5.95-1.141A22.019,22.019,0,0,1,1030.551-236.749Z" transform="translate(-974.228 279.701)" fill="#fff"/>
            <path id="Trazado_37" data-name="Trazado 37" d="M989.006-411.177s-2.418-4.024-.437-7.359a27.158,27.158,0,0,1,2.656-3.669s1.541,3.666.68,6.023A21.992,21.992,0,0,1,989.006-411.177Z" transform="translate(-948.355 429.403)" fill="#fff"/>
            <path id="Trazado_38" data-name="Trazado 38" d="M936.962-437.176s-3.682-2.916-2.995-6.726a25.671,25.671,0,0,1,1.176-4.369s2.733,2.886,2.779,5.4A22.521,22.521,0,0,1,936.962-437.176Z" transform="translate(-904.207 450.75)" fill="#fff"/>
            <path id="Trazado_39" data-name="Trazado 39" d="M999.77-333.276s-2.757,3.782-6.61,3.283a27.7,27.7,0,0,1-4.414-.989s2.773-2.863,5.274-3.008A22.287,22.287,0,0,1,999.77-333.276Z" transform="translate(-949.14 357.172)" fill="#fff"/>
          </g>
        </g>
      </g>
    </g>
    <path id="Trazado_41" data-name="Trazado 41" d="M3098.6,1932.688s15.363-17.293,17.761-32.335c2.384-15.067-8.222-43.83-8.222-43.83s-11.738,17.027-14.825,33.525c-3.086,16.522-4.613,32.016-4.613,32.016s2.416-21.477-2.459-38.064c-3.095-10.535-11.745-21.849-11.745-21.849s-6.637,18.667-6.627,31.993,3.6,28.816,3.6,28.816-4.471-17.708-10.672-23.449c-6.2-5.763-17.278-11.452-17.278-11.452a104.4,104.4,0,0,0,3.558,25.386c3.548,12.2,9.238,18.847,9.238,18.847Z" transform="translate(-2895.374 -1503.094)" fill="#000977"/>
  </g>
</svg>
