<svg xmlns="http://www.w3.org/2000/svg" width="264.014" height="274.887" viewBox="0 0 264.014 274.887">
  <g id="Grupo_71" data-name="Grupo 71" transform="translate(47.5 27.043)">
    <path id="Sustracci贸n_2" data-name="Sustracci贸n 2" d="M297.656,356.028h0c-.091-.036-9.24-3.708-22.746-10.085A551.743,551.743,0,0,1,224,318.643V231.026a337.751,337.751,0,0,1,27.05,23.748c9.229,9.163,15.775,17.307,19.457,24.206a218.222,218.222,0,0,1,11.078,24.792c2.924,7.644,5.808,16.078,8.573,25.068,4.675,15.2,7.471,27.068,7.5,27.186Zm132.762-65.766h0c-.2-.016-20.33-1.653-46.348-5.777-15.345-2.432-29.76-5.245-42.844-8.36a309.256,309.256,0,0,1-42.541-13.019c-11.994-4.794-25.252-10.828-39.407-17.936C247.99,239.5,236.122,233.151,224,226.288V152.4c13.888,4.622,35.456,12.353,59.342,22.931,29.084,12.88,53.872,26.552,73.676,40.635a256.278,256.278,0,0,1,27.5,23.01c7.664,7.283,15.554,15.45,23.45,24.272,13.362,14.931,22.358,26.892,22.447,27.011Zm-17.5-100.824c-26.875,0-51.211-2.4-72.331-7.127-48.431-10.861-93.834-23.581-116.588-30.2V87.563a333.653,333.653,0,0,1,55.61-5.106c16.448,0,31.313,1.624,44.183,4.826,13.981,3.494,31.242,10.741,51.3,21.538,16.05,8.638,33.919,19.555,53.111,32.449,32.64,21.928,58.193,42.295,58.447,42.5a.238.238,0,0,1-.044.009c-1.458.247-9.343,1.542-21.372,2.826A503.734,503.734,0,0,1,412.919,189.439Z" transform="translate(-271 -109)" fill="#73e39b" stroke="rgba(0,0,0,0)" stroke-width="1"/>
    <path id="Sustracci贸n_1" data-name="Sustracci贸n 1" d="M246.011,345.649h0c-.1-.069-9.678-7.054-22.01-18.192V233.661a212.293,212.293,0,0,1,12.823,22.052c4.064,8.235,6.62,15.428,7.6,21.377a194.462,194.462,0,0,1,2.178,22.316c.322,6.827.433,14.322.332,22.278-.171,13.461-.913,23.86-.92,23.963Zm109.623-41.5h0c-.139-.036-14.1-3.63-31.656-9.977-10.361-3.745-19.973-7.713-28.569-11.793a173.955,173.955,0,0,1-27.281-15.727,295.551,295.551,0,0,1-23.573-19.262c-6.656-5.978-13.572-12.6-20.554-19.679V112.357a274.429,274.429,0,0,1,43.458-3.606,187.752,187.752,0,0,1,30.279,2.273,103.765,103.765,0,0,1,28.729,8.676c9.146,4.5,19.763,12.554,31.557,23.937a390.236,390.236,0,0,1,30.331,33.422c18.183,22.231,31.682,42.359,31.816,42.56a.325.325,0,0,1-.051,0c-.843.038-3.958.164-8.652.164a305.833,305.833,0,0,1-41.395-2.848c-20.664-2.878-38.672-7.757-53.524-14.5-39.9-18.135-76.206-38.481-83.079-42.376a375.04,375.04,0,0,1,35.724,23.825A329.611,329.611,0,0,1,295.627,205.9a221.641,221.641,0,0,1,24.868,26.984,168.058,168.058,0,0,1,14.277,22.592c3.779,7.037,7.514,14.851,11.1,23.224,6.077,14.177,9.723,25.335,9.759,25.446Z" transform="translate(-271 -109)" fill="#7df9a9" stroke="rgba(0,0,0,0)" stroke-width="1"/>
  </g>
</svg>
