<svg xmlns="http://www.w3.org/2000/svg" width="300.165" height="274.853" viewBox="0 0 300.165 274.853">
  <g id="Grupo_72" data-name="Grupo 72" transform="translate(14.665 285.043)">
    <path id="Sustracci贸n_4" data-name="Sustracci贸n 4" d="M229.1,332.028v0c.032-.118,3.26-11.955,8.688-27.186,3.2-8.99,6.545-17.424,9.933-25.068a204.786,204.786,0,0,1,12.835-24.792c3.921-6.341,10.658-13.748,20.025-22.016a340.914,340.914,0,0,1,28.246-22.02v86.62c-11.813,6.06-31.012,15.351-55.4,25.2-14.47,5.845-24.232,9.229-24.329,9.263ZM75.272,266.263l0,0c.1-.119,10.513-12.068,26.008-27.011,9.149-8.823,18.29-16.989,27.17-24.272a291.423,291.423,0,0,1,31.865-23.01c21.818-13.391,48.915-26.436,80.54-38.772,26.989-10.528,51.857-18.4,67.967-23.159v74.975c-13.311,6.411-26.31,12.338-38.637,17.616-15.121,6.474-29.345,12.018-42.278,16.48a401.405,401.405,0,0,1-49.291,13.019c-15.161,3.115-31.863,5.928-49.642,8.36-30.155,4.125-53.469,5.761-53.7,5.777ZM95.553,165.439h0c-13.615,0-35.184-.492-60.626-2.836-15.176-1.4-24.719-2.821-24.813-2.835,0,0,.032-.024.084-.059,1.9-1.3,8.913-6.074,19.414-12.862,11.079-7.161,28.438-18.105,48.222-29.576,22.237-12.893,42.941-23.811,61.537-32.449,23.246-10.8,43.246-18.044,59.445-21.538,14.912-3.2,32.136-4.826,51.192-4.826a438.346,438.346,0,0,1,58.818,4.309v66.751c-25.449,6.322-76.108,18.467-129.47,28.795C154.885,163.041,126.69,165.439,95.553,165.439Z" transform="translate(-23.824 -343)" fill="#73e39b" stroke="rgba(0,0,0,0)" stroke-width="1"/>
    <path id="Sustracci贸n_3" data-name="Sustracci贸n 3" d="M216.816,321.649v0c-.009-.1-.868-10.5-1.066-23.963-.117-7.955.012-15.45.384-22.278a168.754,168.754,0,0,1,2.523-22.316c1.76-9.236,7.833-21.27,18.048-35.768V307.75c-11.442,8.587-19.8,13.846-19.887,13.9ZM89.8,280.148v0c.042-.111,4.262-11.26,11.307-25.446,4.158-8.373,8.487-16.186,12.865-23.224a166.972,166.972,0,0,1,16.543-22.592,238.033,238.033,0,0,1,28.81-26.982,374.923,374.923,0,0,1,30.626-22.011,445.4,445.4,0,0,1,41.393-23.827c-7.982,3.9-50.143,24.284-96.256,42.374-17.207,6.744-38.071,11.622-62.014,14.5a409.834,409.834,0,0,1-47.965,2.848c-6.284,0-10.046-.166-10.084-.168l.018-.026c1.647-2.112,16.67-21.245,36.845-42.534a418.093,418.093,0,0,1,35.143-33.422C100.7,108.254,113,100.2,123.6,95.7c9.308-3.94,20.507-6.858,33.287-8.675a251.386,251.386,0,0,1,35.083-2.274A367.143,367.143,0,0,1,236.7,87.6V208.561c-16.4,13.98-31.71,25.449-45.514,34.09a211.339,211.339,0,0,1-31.608,15.727c-9.959,4.08-21.1,8.048-33.1,11.793-20.326,6.341-36.517,9.941-36.679,9.976Z" transform="translate(48.295 -343)" fill="#7df9a9" stroke="rgba(0,0,0,0)" stroke-width="1"/>
  </g>
</svg>
