<svg xmlns="http://www.w3.org/2000/svg" width="332.1" height="267.369" viewBox="0 0 332.1 267.369">
  <path id="hojas" d="M250.255,268.957s4.517-10.057,13.549-10.771a62.527,62.527,0,0,1,10.552.117s-4.971,7.926-10.671,9.5a44.867,44.867,0,0,1-11.071,1.207C251.176,269.006,250.255,268.957,250.255,268.957Zm-122.911-2.208s4.513-10.059,13.543-10.769a62.884,62.884,0,0,1,10.553.118s-5.027,7.93-10.665,9.5a44.72,44.72,0,0,1-11.04,1.2C128.278,266.8,127.344,266.749,127.344,266.749Zm48.281-5.983c-4.49-3.8-8.57-10.476-8.57-10.476s10.764-2.069,16.415,4.979a63.522,63.522,0,0,1,5.882,8.838s-.3.013-.815.013C186.177,264.12,179.277,263.844,175.625,260.766Zm42.809,2.681c-5.5-1.865-11.708-6.591-11.708-6.591s9.325-5.846,17.15-1.338a62.822,62.822,0,0,1,8.609,6.052,30.162,30.162,0,0,1-10.434,2.418A11.11,11.11,0,0,1,218.434,263.447Zm-138.4-8.455s4.526-10.084,13.547-10.766a59.434,59.434,0,0,1,10.553.118s-4.969,7.92-10.661,9.469a45.423,45.423,0,0,1-11.2,1.223C80.9,255.036,80.037,254.993,80.037,254.993Zm167.19-18.834a66.458,66.458,0,0,1,5.764-8.971s3.971,8.428,2.247,14.089c-1.716,5.628-6.214,12.115-6.214,12.115S242.96,244.249,247.227,236.158Zm-40.664-2.434a63.784,63.784,0,0,1,8.322-6.633s1.067,9.274-2.35,14.1c-3.412,4.8-9.722,9.491-9.722,9.491S200,240.053,206.564,233.725Zm-158.3,15.783c-5.544-1.888-11.76-6.611-11.76-6.611s9.331-5.849,17.149-1.338a59.817,59.817,0,0,1,8.611,6.048A30.486,30.486,0,0,1,51.8,250.026,11.061,11.061,0,0,1,48.268,249.508Zm229.772-3.174c-4.437-3.776-8.516-10.462-8.516-10.462s10.711-2.088,16.364,4.961a64.405,64.405,0,0,1,5.891,8.81s-.334.016-.905.016C288.431,249.658,281.648,249.37,278.04,246.334ZM223.61,234.108a66.134,66.134,0,0,1,.317-10.647s7.776,5.119,9.157,10.815c1.435,5.715.845,13.575.845,13.575S224.037,243.208,223.61,234.108ZM77.01,222.193a66.465,66.465,0,0,1,5.765-8.97s3.978,8.406,2.257,14.062-6.224,12.143-6.224,12.143S72.8,230.3,77.01,222.193Zm72.637,16.673c-5.541-1.917-11.723-6.718-11.723-6.718s9.35-5.751,17.149-1.185a62.287,62.287,0,0,1,8.591,6.1,30.553,30.553,0,0,1-10.367,2.352A11.1,11.1,0,0,1,149.648,238.865Zm27.821-11.823c-2.037-5.515-2.33-13.37-2.33-13.37s10.316,3.487,11.788,12.464a64.024,64.024,0,0,1,.814,10.609S179.506,232.564,177.468,227.042ZM36.351,219.764a63.308,63.308,0,0,1,8.317-6.637s1.069,9.274-2.34,14.079c-3.424,4.825-9.73,9.513-9.73,9.513S29.794,226.064,36.351,219.764Zm71.486,12.581c-4.451-3.751-8.533-10.433-8.533-10.433s10.715-2.093,16.364,4.962a64.368,64.368,0,0,1,5.891,8.809s-.331.016-.9.016C118.227,235.7,111.436,235.41,107.837,232.345Zm-54.443-12.2a61.888,61.888,0,0,1,.376-10.648s7.724,5.1,9.105,10.794c1.426,5.737.837,13.6.837,13.6S53.873,229.264,53.394,220.145ZM300.9,231.679c-5.527-1.937-11.67-6.694-11.67-6.694s9.36-5.777,17.113-1.237a61.409,61.409,0,0,1,8.581,6.13,30.278,30.278,0,0,1-10.348,2.349A11.3,11.3,0,0,1,300.9,231.679Zm-34.57-16.472c3.609-4.693,10.029-9.193,10.029-9.193s2.47,10.741-4.29,16.813a59.008,59.008,0,0,1-8.523,6.383S262.791,219.9,266.333,215.207ZM7.25,213.084c-2.036-5.521-2.318-13.4-2.318-13.4s10.305,3.515,11.777,12.49a64.032,64.032,0,0,1,.814,10.61S9.3,218.572,7.25,213.084Zm200.741,5.7a59.665,59.665,0,0,1-10.456-1.511s6-7.188,11.776-8.023c5.767-.8,13.434.608,13.434.608s-5.468,8.943-14.1,8.943Q208.322,218.8,207.991,218.78Zm-77.3-1.087c-5.482-1.9-11.678-6.672-11.678-6.672s9.359-5.779,17.167-1.216a64.956,64.956,0,0,1,8.589,6.107,30.536,30.536,0,0,1-10.366,2.34A11.279,11.279,0,0,1,130.694,217.693Zm109.55-.673a62.1,62.1,0,0,1-9.125-5.284s8.178-4.483,13.845-3.087,12.214,5.525,12.214,5.525S251.9,218.2,245.7,218.2A12.8,12.8,0,0,1,240.244,217.02Zm-144.113-15.8c3.6-4.669,10.015-9.168,10.015-9.168s2.484,10.715-4.289,16.819a61.733,61.733,0,0,1-8.472,6.4S92.572,205.938,96.131,201.218ZM290.712,196.1c3.967-4.386,10.8-8.257,10.8-8.257s1.519,10.935-5.773,16.366a58.2,58.2,0,0,1-9.055,5.59S286.759,200.463,290.712,196.1Zm29.993,11.782a62.085,62.085,0,0,1-10.458-1.183s5.765-7.365,11.5-8.392c5.772-.977,13.511.22,13.511.22s-5.393,9.358-14.253,9.358C320.906,207.887,320.806,207.886,320.705,207.884ZM191.8,194.568c4.432-3.893,11.635-7,11.635-7s.257,11-7.565,15.649a60.914,60.914,0,0,1-9.565,4.566S187.363,198.482,191.8,194.568ZM37.775,204.817a63.218,63.218,0,0,1-10.452-1.508s5.99-7.192,11.767-8.019c5.831-.814,13.5.6,13.5.6s-5.527,8.946-14.157,8.946C38.214,204.834,38,204.828,37.775,204.817Zm32.251-1.755a61.732,61.732,0,0,1-9.124-5.289s8.186-4.5,13.854-3.115,12.258,5.572,12.258,5.572-5.311,4-11.53,4A12.892,12.892,0,0,1,70.026,203.062ZM221,200.333a61.214,61.214,0,0,1-8.7-5.965s8.482-3.865,14.047-2.03c5.506,1.842,11.8,6.509,11.8,6.509a22.282,22.282,0,0,1-10.627,3.132A13.092,13.092,0,0,1,221,200.333Zm43.09-.971a61.1,61.1,0,0,1-9.821-3.72s7.346-5.741,13.177-5.273c5.791.427,12.972,3.477,12.972,3.477s-5.739,5.982-12.929,5.982A12.5,12.5,0,0,1,264.091,199.362ZM174.934,182c1.289-5.76,5.264-12.586,5.264-12.586s6.72,8.638,3.174,17.018a67.745,67.745,0,0,1-5.049,9.417S173.7,187.771,174.934,182Zm-54.427.119c3.951-4.361,10.79-8.231,10.79-8.231s1.521,10.93-5.771,16.361a60.73,60.73,0,0,1-9.055,5.59S116.55,186.478,120.507,182.119Zm29.978,11.807a62.327,62.327,0,0,1-10.455-1.187s5.774-7.387,11.551-8.368,13.465.2,13.465.2-5.394,9.361-14.259,9.362C150.687,193.929,150.587,193.928,150.485,193.926Zm-128.9-13.318c4.428-3.889,11.635-7,11.635-7s.305,11.021-7.517,15.665a68.849,68.849,0,0,1-9.566,4.567S17.2,184.539,21.589,180.607Zm29.2,5.761a61.283,61.283,0,0,1-8.638-5.971s8.471-3.833,13.983-2.018c5.566,1.83,11.8,6.5,11.8,6.5a22.053,22.053,0,0,1-10.6,3.14A13.169,13.169,0,0,1,50.785,186.368Zm185.126.772s5.069-7.883,10.688-9.4c5.678-1.525,13.456-1.057,13.456-1.057s-4.619,10.02-13.626,10.652c-1.417.1-2.789.141-4.047.141A58.479,58.479,0,0,1,235.911,187.141ZM93.928,185.418a60.809,60.809,0,0,1-9.874-3.74s7.345-5.741,13.189-5.294c5.78.448,12.956,3.5,12.956,3.5s-5.743,5.99-12.91,5.991A12.387,12.387,0,0,1,93.928,185.418ZM4.717,168.035c1.287-5.754,5.27-12.583,5.27-12.583s6.726,8.609,3.167,17.022a66.738,66.738,0,0,1-5.047,9.411S3.482,173.816,4.717,168.035ZM200.34,178.2a62.311,62.311,0,0,1-6.984-7.9s9.107-1.724,14.027,1.392c4.965,3.136,9.877,9.167,9.877,9.167a22.964,22.964,0,0,1-6.681,1A14.579,14.579,0,0,1,200.34,178.2Zm77.508.511a62.523,62.523,0,0,1-8.03-6.822s8.753-3.015,14.114-.6c5.31,2.364,11.071,7.67,11.071,7.67a22.858,22.858,0,0,1-9.2,2.13A13.515,13.515,0,0,1,277.848,178.714Zm27.269-4.864a62.43,62.43,0,0,1-6.9-7.96s9.14-1.652,14.041,1.515,9.784,9.256,9.784,9.256a22.882,22.882,0,0,1-6.521.951A14.686,14.686,0,0,1,305.117,173.849Zm-239.425-.668s5.071-7.889,10.69-9.4c5.682-1.524,13.463-1.079,13.463-1.079s-4.575,10.066-13.629,10.676c-1.425.1-2.8.142-4.067.142A58.728,58.728,0,0,1,65.692,173.182Zm155.639-5.664a60.232,60.232,0,0,1-8.993-5.479s8.246-4.336,13.864-2.813c5.633,1.5,12.107,5.817,12.107,5.817s-5.2,3.77-11.26,3.77A12.8,12.8,0,0,1,221.331,167.518Zm-191.2-3.271a63.114,63.114,0,0,1-6.99-7.9s9.107-1.724,14.082,1.407c4.928,3.091,9.884,9.146,9.884,9.146a23.2,23.2,0,0,1-6.728,1.007A14.592,14.592,0,0,1,30.127,164.246Zm77.505.5a60.74,60.74,0,0,1-8.023-6.844s8.8-2.975,14.107-.58C119.023,159.7,124.79,165,124.79,165a22.867,22.867,0,0,1-9.2,2.13A13.509,13.509,0,0,1,107.632,164.751Zm138.28-7.743a60.573,60.573,0,0,1-3.71-9.944s9.085,1.722,12.59,6.439c3.455,4.694,5.894,12.151,5.894,12.151S249.787,165.2,245.911,157.009Zm-111.006,2.88a60.285,60.285,0,0,1-6.9-7.989s9.131-1.625,14.029,1.546,9.786,9.25,9.786,9.25a22.859,22.859,0,0,1-6.527.954A14.658,14.658,0,0,1,134.906,159.889Zm22.027-3.572a59.523,59.523,0,0,1-6.908-7.962s9.131-1.624,14.032,1.541c4.91,3.145,9.789,9.257,9.789,9.257a22.858,22.858,0,0,1-6.477.937A14.733,14.733,0,0,1,156.933,156.316Zm119.714,2.257a60.8,60.8,0,0,1-10.3-2.236s6.44-6.789,12.289-7.175c5.811-.431,13.395,1.52,13.395,1.52s-5.7,7.985-13.849,7.986A12.445,12.445,0,0,1,276.647,158.574ZM51.12,153.556a60.341,60.341,0,0,1-9-5.482s8.248-4.336,13.863-2.806c5.634,1.5,12.163,5.83,12.163,5.83s-5.223,3.755-11.29,3.755A12.845,12.845,0,0,1,51.12,153.556Zm135.849-.5s5.4-7.645,11.147-8.876c5.707-1.275,13.469-.454,13.469-.454s-5.077,9.821-14.1,10.027c-.436.011-.868.016-1.292.016A60.756,60.756,0,0,1,186.969,153.059ZM75.692,143.051a60.885,60.885,0,0,1-3.706-9.95s9.092,1.7,12.6,6.413c3.443,4.724,5.89,12.179,5.89,12.179S79.575,151.238,75.692,143.051ZM218.8,140.6a59.639,59.639,0,0,1-2.055-10.444s8.663,3.179,11.342,8.393,3.88,12.992,3.88,12.992S221.3,149.322,218.8,140.6Zm91.127,3.33a60.628,60.628,0,0,1-8.248-6.543s8.68-3.287,14.108-1.08c5.377,2.18,11.281,7.264,11.281,7.264a22.45,22.45,0,0,1-9.7,2.469A13.354,13.354,0,0,1,309.926,143.925Zm-203.5.684a61.931,61.931,0,0,1-10.292-2.255s6.476-6.744,12.284-7.177c5.855-.384,13.387,1.543,13.387,1.543s-5.7,7.983-13.848,7.984A12.458,12.458,0,0,1,106.43,144.609Zm70.484-.4s4.518-10.057,13.5-10.786a64.942,64.942,0,0,1,10.552.118s-4.977,7.947-10.612,9.518a44.665,44.665,0,0,1-11.023,1.2C177.857,144.262,176.914,144.212,176.914,144.212ZM16.756,139.1s5.395-7.647,11.143-8.877c5.707-1.276,13.469-.455,13.469-.455s-5.077,9.823-14.1,10.033c-.419.01-.834.015-1.243.015A61.217,61.217,0,0,1,16.756,139.1Zm128.336-.391c-5.544-1.888-11.756-6.609-11.756-6.609s9.327-5.852,17.145-1.341a59.358,59.358,0,0,1,8.609,6.053,30.284,30.284,0,0,1-10.44,2.425A10.96,10.96,0,0,1,145.093,138.706Zm103.265-2.8a60.975,60.975,0,0,1-8.252-6.545s8.695-3.31,14.115-1.083c5.378,2.18,11.279,7.271,11.279,7.271a22.452,22.452,0,0,1-9.694,2.465A13.373,13.373,0,0,1,248.358,135.91ZM48.582,126.631a60.175,60.175,0,0,1-2.055-10.442s8.663,3.179,11.34,8.4,3.887,12.989,3.887,12.989S51.095,135.337,48.582,126.631ZM173.838,111.4a64.874,64.874,0,0,1,5.756-8.95s3.978,8.406,2.3,14.08c-1.712,5.636-6.214,12.121-6.214,12.121S169.619,119.508,173.838,111.4Zm-40.613-2.414a61.656,61.656,0,0,1,8.272-6.652s1.067,9.274-2.345,14.072c-3.418,4.826-9.733,9.518-9.733,9.518S126.615,115.291,133.225,108.986Zm71.427,12.585c-4.443-3.774-8.523-10.459-8.523-10.459s10.717-2.086,16.421,4.981a61.662,61.662,0,0,1,5.833,8.788s-.356.018-.962.018C214.941,124.9,208.272,124.6,204.652,121.57Zm-126.5.35a62.22,62.22,0,0,1-8.257-6.517s8.688-3.308,14.118-1.107c5.367,2.208,11.281,7.265,11.281,7.265a22.453,22.453,0,0,1-9.7,2.469A13.354,13.354,0,0,1,78.151,121.92Zm72.071-12.569A61.2,61.2,0,0,1,150.6,98.7s7.708,5.125,9.14,10.838c1.389,5.693.792,13.558.792,13.558S150.7,118.469,150.222,109.351Zm124.609,9.12a60.908,60.908,0,0,1-8.251-6.549s8.683-3.279,14.114-1.079c5.378,2.181,11.331,7.289,11.331,7.289a22.677,22.677,0,0,1-9.718,2.451A13.426,13.426,0,0,1,274.83,118.471ZM104.08,102.284c-2.037-5.516-2.324-13.4-2.324-13.4s10.359,3.532,11.831,12.509A63.886,63.886,0,0,1,114.4,112S106.112,107.8,104.08,102.284Zm-67.945,5.83s5.393-7.648,11.1-8.923c5.744-1.231,13.459-.427,13.459-.427s-5.017,9.813-14.047,10.046c-.387.008-.77.012-1.147.012A62.553,62.553,0,0,1,36.135,108.114Zm191.427-1.177c-5.524-1.941-11.716-6.716-11.716-6.716s9.36-5.778,17.159-1.213a61.534,61.534,0,0,1,8.582,6.128,30.559,30.559,0,0,1-10.368,2.351A11.121,11.121,0,0,1,227.562,106.937ZM193,90.469c3.559-4.72,10.026-9.2,10.026-9.2s2.42,10.729-4.342,16.8a61.748,61.748,0,0,1-8.473,6.4S189.4,95.137,193,90.469ZM70.256,87.308a62.571,62.571,0,0,1-2-10.422s8.663,3.179,11.343,8.393S83.48,98.272,83.48,98.272,72.813,96.055,70.256,87.308ZM134.6,94.015a59.711,59.711,0,0,1-10.4-1.489s5.944-7.21,11.774-8.018c5.769-.808,13.43.606,13.43.606s-5.509,8.918-14.135,8.919C135.047,94.033,134.825,94.027,134.6,94.015Zm153.89-.733c-5.494-1.863-11.7-6.59-11.7-6.59s9.325-5.846,17.146-1.338a59.475,59.475,0,0,1,8.608,6.052,30.328,30.328,0,0,1-10.447,2.407A11.228,11.228,0,0,1,288.49,93.282Zm-121.585-1a60.325,60.325,0,0,1-9.124-5.29s8.124-4.5,13.794-3.1,12.269,5.54,12.269,5.54-5.324,4.019-11.521,4.019A12.7,12.7,0,0,1,166.9,92.281Zm50.471-20.918c3.962-4.388,10.8-8.257,10.8-8.257s1.467,10.91-5.834,16.368a61.66,61.66,0,0,1-8.994,5.583S213.366,75.7,217.375,71.363Zm29.988,11.779a62.075,62.075,0,0,1-10.5-1.2s5.767-7.389,11.545-8.371,13.453.23,13.453.23-5.391,9.347-14.219,9.347Q247.5,83.145,247.363,83.142Zm-128.9-13.318c4.376-3.907,11.58-7.014,11.58-7.014s.31,11.023-7.516,15.661a65.284,65.284,0,0,1-9.566,4.566S114.029,73.739,118.467,69.824Zm29.194,5.767a60.219,60.219,0,0,1-8.692-5.99s8.473-3.839,13.99-2.022c5.556,1.862,11.786,6.53,11.786,6.53a22.066,22.066,0,0,1-10.573,3.13A13.064,13.064,0,0,1,147.661,75.591Zm43.089-.969a61.587,61.587,0,0,1-9.868-3.743s7.346-5.741,13.185-5.3c5.829.473,13.01,3.523,13.01,3.523s-5.734,5.982-12.926,5.983A12.508,12.508,0,0,1,190.751,74.622ZM101.595,57.254c1.239-5.772,5.27-12.583,5.27-12.583s6.715,8.636,3.108,17.031a60.683,60.683,0,0,1-5.037,9.39S100.306,63.014,101.595,57.254Zm60.921,5.127S167.583,54.52,173.26,53c5.627-1.537,13.41-1.1,13.41-1.1s-4.575,10.067-13.576,10.7c-1.392.1-2.738.133-3.976.133A59.573,59.573,0,0,1,162.516,62.381ZM127,53.464a62.052,62.052,0,0,1-7.043-7.919s9.112-1.723,14.08,1.411c4.92,3.113,9.877,9.168,9.877,9.168a22.931,22.931,0,0,1-6.68,1A14.57,14.57,0,0,1,127,53.464Zm77.455.493a62.532,62.532,0,0,1-8.03-6.824s8.81-3,14.107-.6c5.364,2.383,11.078,7.667,11.078,7.667a22.611,22.611,0,0,1-9.185,2.142A13.581,13.581,0,0,1,204.459,53.957Zm27.271-4.87a62.181,62.181,0,0,1-6.909-7.957s9.143-1.657,14.042,1.515,9.789,9.257,9.789,9.257a22.873,22.873,0,0,1-6.517.95A14.677,14.677,0,0,1,231.73,49.087Zm-83.786-6.332a59.862,59.862,0,0,1-9-5.475s8.24-4.338,13.865-2.812c5.681,1.516,12.162,5.83,12.162,5.83s-5.19,3.762-11.262,3.762A12.93,12.93,0,0,1,147.945,42.755Zm24.572-10.507a62.892,62.892,0,0,1-3.65-9.923s9.089,1.693,12.532,6.418c3.508,4.711,5.954,12.165,5.954,12.165S176.452,40.456,172.517,32.248Zm30.8,1.583A64.061,64.061,0,0,1,193.007,31.6s6.434-6.79,12.236-7.194c5.861-.414,13.382,1.54,13.382,1.54s-5.647,7.98-13.779,7.981A12.418,12.418,0,0,1,203.314,33.831ZM113.581,28.3s5.448-7.628,11.149-8.876c5.7-1.271,13.466-.449,13.466-.449s-5.028,9.839-14.049,10.046q-.547.011-1.083.011A62.625,62.625,0,0,1,113.581,28.3ZM145.407,15.83a65.7,65.7,0,0,1-2.05-10.441s8.716,3.2,11.389,8.415c2.669,5.24,3.887,12.989,3.887,12.989S147.914,24.564,145.407,15.83Zm29.563-4.683A62.866,62.866,0,0,1,166.718,4.6s8.741-3.288,14.108-1.081c5.435,2.2,11.336,7.293,11.336,7.293a22.683,22.683,0,0,1-9.714,2.448A13.418,13.418,0,0,1,174.97,11.147Z" transform="translate(-3.957 -2.136)" fill="#73e39b" stroke="rgba(0,0,0,0)" stroke-width="1"/>
</svg>
