<svg xmlns="http://www.w3.org/2000/svg" width="176.549" height="130.235" viewBox="0 0 176.549 130.235">
  <path id="mancha" d="M105.208,120.34a18.451,18.451,0,0,0,4.193-3.4c1.324-1.433,2.354-3.152,3.919-4.343,4.036-3.1,10.336.176,8.636,5.54-1.673,5.292-7.447,8.838-12.393,10.7a5.656,5.656,0,0,1-2.008.384C103.022,129.226,100.481,123.147,105.208,120.34ZM80.123,101.32c1.685-5.118-.105-9.868.309-15.044.229-2.805,3.554-4.863,6.04-3.091,6.7,4.78,6.4,14.363,3.813,21.415a5.107,5.107,0,0,1-4.946,3.523C82.073,108.122,78.788,105.369,80.123,101.32Zm70.025,4.066c-3.418-4.288-5.487-10.125-7.864-15.067-1.542-3.211-4.036-9.425.955-11.068,5.152-1.688,8.522,5.494,9.97,9.128,1.967,4.949,3.6,10.471,2.542,15.785a3.129,3.129,0,0,1-3.2,2.279A3.016,3.016,0,0,1,150.148,105.386ZM30.128,93.708c5.243-5.208,17.895-12,23.408-3.7.846,1.275.2,3.02-.715,4.006-1.985,2.147-5.386,2.633-8.116,3.264a19.078,19.078,0,0,0-8.049,3.542,5.02,5.02,0,0,1-3.145,1.164C29.689,101.981,26.638,97.178,30.128,93.708ZM59.693,69.657c3.054-3,6.372-6.86,10.422-8.466A5.584,5.584,0,0,1,76.5,62.342c1.463,1.583,2.053,4.709.572,6.5-3.171,3.844-7.8,6.04-12.159,8.308a4.59,4.59,0,0,1-2.132.552A4.736,4.736,0,0,1,59.693,69.657Zm52.766,4.93c-2.666-5.355-6.295-10.433-6.89-16.559-.24-2.456.576-4.871,2.9-6.059,1.975-1.012,5.232-.764,6.619,1.181,3.972,5.589,4.784,11.767,6.469,18.233.89,3.423-2.047,5.738-4.925,5.738A4.5,4.5,0,0,1,112.459,74.588ZM24.433,75.6c-4.723-.948-2.959-8.131,1.482-7.98,4.9.154,9.478-1.685,14.333-1.715,3.482-.022,4.99,4.769,2.5,6.961-3.053,2.682-6.942,3.562-10.9,3.562A38.24,38.24,0,0,1,24.433,75.6Zm144.85-.5a30.4,30.4,0,0,1-6.675-6.977c-1.651-2.291-3.682-4.671-3.614-7.661a2.539,2.539,0,0,1,1.4-2.156,7.47,7.47,0,0,1,2.624-.579l8.5,4.6a16.712,16.712,0,0,1,3.983,9.587,4.059,4.059,0,0,1-4.154,3.833A3.5,3.5,0,0,1,169.283,75.1ZM134.2,63.775a2.8,2.8,0,0,1,1.714-5.329,1.383,1.383,0,0,0,1.061-.455,7.959,7.959,0,0,0,1.572-1.828,4.817,4.817,0,0,1,2.519-2.125c1.564-.328,2.554.989,3.024,2.268a4.836,4.836,0,0,1-.095,3.611,6.689,6.689,0,0,1-2.9,3.358,8.376,8.376,0,0,1-4.085,1.1A6.664,6.664,0,0,1,134.2,63.775ZM8.638,38.5c3.829-2.158,7.638-4.773,11.892-5.98,4.712-1.327,8.255,5.593,4.426,8.639-3.467,2.745-7.811,4.317-11.8,6.156a5.316,5.316,0,0,1-2.234.519C6.393,47.835,3.843,41.219,8.638,38.5ZM49.2,40.845c1.846-3.754,3.4-8.109,5.806-11.524,1.539-2.185,5.022-5.71,7.982-3.81,3.128,1.993,1.413,7.126.063,9.639-1.911,3.565-4.393,6.92-6.585,10.331A3.979,3.979,0,0,1,53.1,47.5,4.581,4.581,0,0,1,49.2,40.845Zm41.562-3.46c4.02-1.381,7.438-3.9,11.35-5.442,2.238-.879,5.9-1.361,6.593,1.708.839,3.682-3.644,6.449-6.473,7.552a35.015,35.015,0,0,1-11.023,2.139c-.074,0-.145.006-.215.006C87.478,43.347,87.941,38.35,90.766,37.384ZM.826,14.323c1.336-2.084,2.67-4.156,4-6.236,1.406-2.189,2.9-4.295,5.483-4.607a3.62,3.62,0,0,1,4.95,3.494v.162c.473,2.275-.643,4.343-1.959,6.363q-2.032,3.1-4.051,6.2a4.611,4.611,0,0,1-3.941,2.241C1.827,21.937-1.625,18.142.826,14.323ZM41.163,4.431a7.887,7.887,0,0,0,3.245-1.94c1.042-.9,2.106-2.268,3.54-2.467a2.135,2.135,0,0,1,2.259,1.083c1.02,2.023-.42,4.55-2,5.909a11.254,11.254,0,0,1-6,2.475,3.289,3.289,0,0,1-.365.021A2.576,2.576,0,0,1,41.163,4.431Z" transform="translate(0.548 0.509)" fill="#7df9a9" stroke="rgba(0,0,0,0)" stroke-width="1"/>
</svg>
