<svg xmlns="http://www.w3.org/2000/svg" xmlns:xlink="http://www.w3.org/1999/xlink" width="133.29" height="134.555" viewBox="0 0 133.29 134.555">
  <defs>
    <clipPath id="clip-path">
      <path id="Trazado_40" data-name="Trazado 40" d="M848.541-468.184l70.766,103.247-100.941.081Z" transform="translate(-818.366 468.184)" fill="none"/>
    </clipPath>
  </defs>
  <g id="red-triangle" transform="matrix(0.921, 0.391, -0.391, 0.921, -895.87, 111.204)">
    <path id="Trazado_10" data-name="Trazado 10" d="M848.541-468.184l70.766,103.247-100.941.081Z" transform="translate(0 0)" fill="#ff431d"/>
    <g id="Grupo_56" data-name="Grupo 56" transform="translate(818.366 -468.183)">
      <g id="Grupo_55" data-name="Grupo 55" transform="translate(0 0)" clip-path="url(#clip-path)">
        <g id="Grupo_54" data-name="Grupo 54" transform="translate(-16.417 2.299)">
          <path id="Trazado_11" data-name="Trazado 11" d="M862.836-396.8s7.755-4.529,13.816-.186a49.61,49.61,0,0,1,6.656,5.75s-7,2.8-11.337.83C867.608-392.339,862.836-396.8,862.836-396.8Z" transform="translate(-831.336 422.204)" fill="#fc6f52"/>
          <path id="Trazado_12" data-name="Trazado 12" d="M843.253-371.426s6.386,6.571,4.5,14.237a57.52,57.52,0,0,1-2.873,8.7s-4.637-6.368-4.346-11.48A47.93,47.93,0,0,1,843.253-371.426Z" transform="translate(-816.593 404.909)" fill="#fc6f52"/>
          <path id="Trazado_13" data-name="Trazado 13" d="M893.064-351.132s8.028,3.869,8.6,11.768a56.9,56.9,0,0,1-.074,9.249s-6.3-4.31-7.574-9.243A50.005,50.005,0,0,1,893.064-351.132Z" transform="translate(-851.291 392.121)" fill="#fc6f52"/>
          <path id="Trazado_14" data-name="Trazado 14" d="M923.212-357.02s7.324-5.292,13.735-1.539a49.279,49.279,0,0,1,7.113,5.046s-6.757,3.47-11.256,1.975C928.333-353.061,923.212-357.02,923.212-357.02Z" transform="translate(-871.233 397.648)" fill="#fc6f52"/>
          <path id="Trazado_15" data-name="Trazado 15" d="M954.926-316.087s7.381,5.223,6.8,13.123a58.665,58.665,0,0,1-1.45,9.133s-5.6-5.369-6.121-10.45A49.588,49.588,0,0,1,954.926-316.087Z" transform="translate(-891.598 370.036)" fill="#fc6f52"/>
          <path id="Trazado_16" data-name="Trazado 16" d="M871.806-291.648s8.754.726,11.693,7.98a57.61,57.61,0,0,1,2.755,8.748s-7.273-1.756-9.971-5.982A48.076,48.076,0,0,1,871.806-291.648Z" transform="translate(-837.263 354.635)" fill="#fc6f52"/>
          <path id="Trazado_17" data-name="Trazado 17" d="M835.633-357.285s8.754.757,11.693,8.007a57.529,57.529,0,0,1,2.752,8.748s-7.273-1.783-9.968-5.982S835.633-357.285,835.633-357.285Z" transform="translate(-813.359 395.998)" fill="#fc6f52"/>
          <path id="Trazado_18" data-name="Trazado 18" d="M935.216-260.964s6.978,5.837,5.825,13.677a57.572,57.572,0,0,1-2.1,8.959s-5.2-5.811-5.338-10.95A48.544,48.544,0,0,1,935.216-260.964Z" transform="translate(-878.095 335.298)" fill="#fc6f52"/>
          <path id="Trazado_19" data-name="Trazado 19" d="M829.344-284.085s2.646,9.13-2.386,14.832a51.028,51.028,0,0,1-6.4,6.052s-1.219-8.015,1.338-12.3A43.843,43.843,0,0,1,829.344-284.085Z" transform="translate(-803.202 349.869)" fill="#fc6f52"/>
          <path id="Trazado_20" data-name="Trazado 20" d="M788.714-341.607s8.485,2.549,10.106,10.269a58.829,58.829,0,0,1,1.165,9.191s-6.814-3.254-8.731-7.952A48.72,48.72,0,0,1,788.714-341.607Z" transform="translate(-782.355 386.118)" fill="#fc6f52"/>
          <path id="Trazado_21" data-name="Trazado 21" d="M813.036-429.849s5.418,7.543,2.542,14.8a56.037,56.037,0,0,1-4.062,8.137s-3.719-7.042-2.7-12.038A47.468,47.468,0,0,1,813.036-429.849Z" transform="translate(-795.521 441.726)" fill="#fc6f52"/>
          <path id="Trazado_22" data-name="Trazado 22" d="M861.7-233.679s7.248,5.4,6.5,13.267a60.913,60.913,0,0,1-1.61,9.106s-5.5-5.489-5.9-10.6A48.026,48.026,0,0,1,861.7-233.679Z" transform="translate(-829.856 318.104)" fill="#fc6f52"/>
          <path id="Trazado_23" data-name="Trazado 23" d="M816.276-208.407s1.272,9.453-4.568,14.187a47.323,47.323,0,0,1-7.214,4.85s-.033-8.1,3.144-11.895A41.86,41.86,0,0,1,816.276-208.407Z" transform="translate(-792.782 302.178)" fill="#fc6f52"/>
          <path id="Trazado_24" data-name="Trazado 24" d="M772.3-270.138s6.6,6.336,4.965,14.062a58.551,58.551,0,0,1-2.606,8.782s-4.852-6.163-4.693-11.3A48.47,48.47,0,0,1,772.3-270.138Z" transform="translate(-769.965 341.08)" fill="#fc6f52"/>
          <path id="Trazado_25" data-name="Trazado 25" d="M838.562-156.557s8.7,1.2,11.343,8.564a56.814,56.814,0,0,1,2.375,8.9s-7.191-2.138-9.7-6.481C840.072-149.9,838.562-156.557,838.562-156.557Z" transform="translate(-815.295 269.503)" fill="#fc6f52"/>
          <path id="Trazado_26" data-name="Trazado 26" d="M920.539-120.915s4.572-8.167,11.817-7.731a46.566,46.566,0,0,1,8.4,1.286s-4.736,6.258-9.4,6.966S920.539-120.915,920.539-120.915Z" transform="translate(-869.467 251.924)" fill="#fc6f52"/>
          <path id="Trazado_27" data-name="Trazado 27" d="M1021.988-162.278s-.249-9.574,6.077-13.542a47.286,47.286,0,0,1,7.7-3.855s-.883,8.047-4.435,11.4A41.021,41.021,0,0,1,1021.988-162.278Z" transform="translate(-936.505 284.072)" fill="#fc6f52"/>
          <path id="Trazado_28" data-name="Trazado 28" d="M1080.093-277.154s-6.926-5.9-5.694-13.707a57.593,57.593,0,0,1,2.151-8.96s5.148,5.868,5.259,11.007A48.875,48.875,0,0,1,1080.093-277.154Z" transform="translate(-971.043 359.785)" fill="#fc6f52"/>
          <path id="Trazado_29" data-name="Trazado 29" d="M1054.537-373.856s-8.754-.669-11.775-7.89a59.092,59.092,0,0,1-2.781-8.718s7.274,1.7,10,5.895C1052.7-380.4,1054.537-373.856,1054.537-373.856Z" transform="translate(-948.395 416.906)" fill="#fc6f52"/>
          <path id="Trazado_30" data-name="Trazado 30" d="M906.006-219.9s5.5,7.486,2.677,14.8a55.829,55.829,0,0,1-3.982,8.167s-3.8-7.015-2.807-12.007A47.654,47.654,0,0,1,906.006-219.9Z" transform="translate(-857.035 309.422)" fill="#fc6f52"/>
          <path id="Trazado_31" data-name="Trazado 31" d="M878.112-461.966s8.647,1.638,10.968,9.123a57.835,57.835,0,0,1,1.972,9.013s-7.086-2.52-9.406-6.98C879.33-455.244,878.112-461.966,878.112-461.966Z" transform="translate(-841.43 461.966)" fill="#fc6f52"/>
          <path id="Trazado_32" data-name="Trazado 32" d="M975.066-235.745s8.594,1.9,10.726,9.475a59.026,59.026,0,0,1,1.729,9.073s-7-2.724-9.215-7.275C976.1-228.993,975.066-235.745,975.066-235.745Z" transform="translate(-905.499 319.406)" fill="#fc6f52"/>
          <path id="Trazado_33" data-name="Trazado 33" d="M1063.545-201.352s8.62,1.9,10.726,9.478a60.562,60.562,0,0,1,1.758,9.044s-7.031-2.728-9.244-7.248A49.077,49.077,0,0,1,1063.545-201.352Z" transform="translate(-963.967 297.732)" fill="#fc6f52"/>
          <path id="Trazado_34" data-name="Trazado 34" d="M941.686-176.45s8.13-3.588,13.738,1.456a53.49,53.49,0,0,1,6.036,6.514s-7.244,1.945-11.365-.52C945.973-171.432,941.686-176.45,941.686-176.45Z" transform="translate(-883.441 282.819)" fill="#fc6f52"/>
          <path id="Trazado_35" data-name="Trazado 35" d="M1019.517-291.78s-.774,9.545-7.424,12.692a48.482,48.482,0,0,1-8.05,2.914s1.69-7.9,5.566-10.811A40.225,40.225,0,0,1,1019.517-291.78Z" transform="translate(-924.647 354.718)" fill="#fc6f52"/>
          <path id="Trazado_36" data-name="Trazado 36" d="M1040.309-233.974s-7.189,5.527-13.68,2.008a49.049,49.049,0,0,1-7.248-4.808s6.622-3.707,11.148-2.33C1035.081-237.755,1040.309-233.974,1040.309-233.974Z" transform="translate(-934.783 321.716)" fill="#fc6f52"/>
          <path id="Trazado_37" data-name="Trazado 37" d="M990.069-399.677s-4.531-8.22-.818-15.033a55.462,55.462,0,0,1,4.975-7.494s2.887,7.488,1.275,12.3A45.883,45.883,0,0,1,990.069-399.677Z" transform="translate(-913.907 436.909)" fill="#fc6f52"/>
          <path id="Trazado_38" data-name="Trazado 38" d="M939.653-425.605s-6.9-5.957-5.61-13.74a56.151,56.151,0,0,1,2.2-8.926s5.12,5.895,5.206,11.034A49.708,49.708,0,0,1,939.653-425.605Z" transform="translate(-878.284 453.336)" fill="#fc6f52"/>
          <path id="Trazado_39" data-name="Trazado 39" d="M1009.4-332.513s-5.166,7.725-12.384,6.706a48.278,48.278,0,0,1-8.269-2.02s5.194-5.849,9.88-6.145S1009.4-332.513,1009.4-332.513Z" transform="translate(-914.54 381.328)" fill="#fc6f52"/>
        </g>
      </g>
    </g>
  </g>
</svg>
